<svg version="1.1" viewBox="0.0 0.0 487.0 304.0" fill="none" stroke="none" stroke-linecap="square" stroke-miterlimit="10" width="487" height="304" xmlns:xlink="http://www.w3.org/1999/xlink" xmlns="http://www.w3.org/2000/svg"><path fill="#ffffff" d="M0 0L487.0 0L487.0 304.0L0 304.0L0 0Z" fill-rule="nonzero"/><path stroke="#333333" stroke-width="1.0" stroke-linecap="butt" d="M81.5 236.5L471.5 236.5" fill-rule="nonzero"/><path stroke="#cccccc" stroke-width="1.0" stroke-linecap="butt" d="M81.5 184.5L471.5 184.5" fill-rule="nonzero"/><path stroke="#cccccc" stroke-width="1.0" stroke-linecap="butt" d="M81.5 132.5L471.5 132.5" fill-rule="nonzero"/><path stroke="#cccccc" stroke-width="1.0" stroke-linecap="butt" d="M81.5 80.5L471.5 80.5" fill-rule="nonzero"/><path stroke="#000000" stroke-width="1.0" stroke-linecap="butt" d="M471.5 80.5L471.5 236.5" fill-rule="nonzero"/><path stroke="#000000" stroke-width="1.0" stroke-linecap="butt" d="M81.5 236.5L81.5 80.5" fill-rule="nonzero"/><clipPath id="id_0"><path d="M81.2 80.46667L471.8 80.46667L471.8 236.8L81.2 236.8L81.2 80.46667Z" clip-rule="nonzero"/></clipPath><path stroke="#000000" stroke-width="2.0" stroke-linecap="butt" stroke-opacity="0.0" clip-path="url(#id_0)" d="M159.0 237.0L123.0 237.0L123.0 158.0C123.0 156.89543 123.89543 156.0 125.0 156.0L157.0 156.0C158.10457 156.0 159.0 156.89543 159.0 158.0Z" fill-rule="nonzero"/><path fill="#4285f4" clip-path="url(#id_0)" d="M159.0 237.0L123.0 237.0L123.0 158.0C123.0 156.89543 123.89543 156.0 125.0 156.0L157.0 156.0C158.10457 156.0 159.0 156.89543 159.0 158.0Z" fill-rule="nonzero"/><path stroke="#000000" stroke-width="2.0" stroke-linecap="butt" stroke-opacity="0.0" clip-path="url(#id_0)" d="M276.0 237.0L240.0 237.0L240.0 172.0C240.0 170.89543 240.89543 170.0 242.0 170.0L274.0 170.0C275.10458 170.0 276.0 170.89543 276.0 172.0Z" fill-rule="nonzero"/><path fill="#4285f4" clip-path="url(#id_0)" d="M276.0 237.0L240.0 237.0L240.0 172.0C240.0 170.89543 240.89543 170.0 242.0 170.0L274.0 170.0C275.10458 170.0 276.0 170.89543 276.0 172.0Z" fill-rule="nonzero"/><path stroke="#000000" stroke-width="2.0" stroke-linecap="butt" stroke-opacity="0.0" clip-path="url(#id_0)" d="M392.0 237.0L356.0 237.0L356.0 89.0C356.0 87.89543 356.89542 87.0 358.0 87.0L390.0 87.0C391.10458 87.0 392.0 87.89543 392.0 89.0Z" fill-rule="nonzero"/><path fill="#4285f4" clip-path="url(#id_0)" d="M392.0 237.0L356.0 237.0L356.0 89.0C356.0 87.89543 356.89542 87.0 358.0 87.0L390.0 87.0C391.10458 87.0 392.0 87.89543 392.0 89.0Z" fill-rule="nonzero"/><path stroke="#000000" stroke-width="2.0" stroke-linecap="butt" stroke-opacity="0.0" clip-path="url(#id_0)" d="M197.0 237.0L161.0 237.0L161.0 210.0C161.0 208.89543 161.89543 208.0 163.0 208.0L195.0 208.0C196.10457 208.0 197.0 208.89543 197.0 210.0Z" fill-rule="nonzero"/><path fill="#ea4335" clip-path="url(#id_0)" d="M197.0 237.0L161.0 237.0L161.0 210.0C161.0 208.89543 161.89543 208.0 163.0 208.0L195.0 208.0C196.10457 208.0 197.0 208.89543 197.0 210.0Z" fill-rule="nonzero"/><path stroke="#000000" stroke-width="2.0" stroke-linecap="butt" stroke-opacity="0.0" clip-path="url(#id_0)" d="M314.0 237.0L278.0 237.0L278.0 211.0C278.0 209.89543 278.89542 209.0 280.0 209.0L312.0 209.0C313.10458 209.0 314.0 209.89543 314.0 211.0Z" fill-rule="nonzero"/><path fill="#ea4335" clip-path="url(#id_0)" d="M314.0 237.0L278.0 237.0L278.0 211.0C278.0 209.89543 278.89542 209.0 280.0 209.0L312.0 209.0C313.10458 209.0 314.0 209.89543 314.0 211.0Z" fill-rule="nonzero"/><path stroke="#000000" stroke-width="2.0" stroke-linecap="butt" stroke-opacity="0.0" clip-path="url(#id_0)" d="M430.0 237.0L394.0 237.0L394.0 177.0C394.0 175.89543 394.89542 175.0 396.0 175.0L428.0 175.0C429.10458 175.0 430.0 175.89543 430.0 177.0Z" fill-rule="nonzero"/><path fill="#ea4335" clip-path="url(#id_0)" d="M430.0 237.0L394.0 237.0L394.0 177.0C394.0 175.89543 394.89542 175.0 396.0 175.0L428.0 175.0C429.10458 175.0 430.0 175.89543 430.0 177.0Z" fill-rule="nonzero"/><path stroke="#4285f4" stroke-width="3.0" stroke-linejoin="round" stroke-linecap="round" d="M129.28125 167.71823L130.09375 167.71823Q130.875 167.7026 131.3125 167.31198Q131.75 166.92136 131.75 166.24948Q131.75 164.74948 130.25 164.74948Q129.54688 164.74948 129.125 165.15573Q128.71875 165.56198 128.71875 166.21823L127.625 166.21823Q127.625 165.2026 128.35938 164.53073Q129.10938 163.85886 130.25 163.85886Q131.45312 163.85886 132.14062 164.49948Q132.82812 165.1401 132.82812 166.28073Q132.82812 166.84323 132.46875 167.35886Q132.10938 167.87448 131.48438 168.1401Q132.1875 168.35886 132.5625 168.87448Q132.95312 169.3901 132.95312 170.1401Q132.95312 171.28073 132.20312 171.96823Q131.45312 172.6401 130.25 172.6401Q129.0625 172.6401 128.29688 171.98386Q127.546875 171.3276 127.546875 170.2651L128.64062 170.2651Q128.64062 170.93698 129.07812 171.34323Q129.51562 171.74948 130.26562 171.74948Q131.04688 171.74948 131.45312 171.34323Q131.875 170.92136 131.875 170.15573Q131.875 169.42136 131.42188 169.03073Q130.96875 168.62448 130.09375 168.60886L129.28125 168.60886L129.28125 167.71823ZM138.26562 172.5151L137.1875 172.5151L137.1875 165.29636L135.0 166.09323L135.0 165.10886L138.10938 163.93698L138.26562 163.93698L138.26562 172.5151ZM145.26562 172.5151L144.1875 172.5151L144.1875 165.29636L142.0 166.09323L142.0 165.10886L145.10938 163.93698L145.26562 163.93698L145.26562 172.5151ZM154.29688 172.5151L148.70312 172.5151L148.70312 171.73386L151.65625 168.4526Q152.3125 167.7026 152.5625 167.24948Q152.8125 166.78073 152.8125 166.28073Q152.8125 165.60886 152.40625 165.18698Q152.01562 164.74948 151.32812 164.74948Q150.53125 164.74948 150.07812 165.21823Q149.625 165.67136 149.625 166.49948L148.54688 166.49948Q148.54688 165.31198 149.29688 164.59323Q150.0625 163.85886 151.32812 163.85886Q152.53125 163.85886 153.21875 164.48386Q153.90625 165.10886 153.90625 166.15573Q153.90625 167.40573 152.29688 169.15573L150.01562 171.62448L154.29688 171.62448L154.29688 172.5151Z" fill-rule="nonzero"/><path fill="#ffffff" d="M129.28125 167.71823L130.09375 167.71823Q130.875 167.7026 131.3125 167.31198Q131.75 166.92136 131.75 166.24948Q131.75 164.74948 130.25 164.74948Q129.54688 164.74948 129.125 165.15573Q128.71875 165.56198 128.71875 166.21823L127.625 166.21823Q127.625 165.2026 128.35938 164.53073Q129.10938 163.85886 130.25 163.85886Q131.45312 163.85886 132.14062 164.49948Q132.82812 165.1401 132.82812 166.28073Q132.82812 166.84323 132.46875 167.35886Q132.10938 167.87448 131.48438 168.1401Q132.1875 168.35886 132.5625 168.87448Q132.95312 169.3901 132.95312 170.1401Q132.95312 171.28073 132.20312 171.96823Q131.45312 172.6401 130.25 172.6401Q129.0625 172.6401 128.29688 171.98386Q127.546875 171.3276 127.546875 170.2651L128.64062 170.2651Q128.64062 170.93698 129.07812 171.34323Q129.51562 171.74948 130.26562 171.74948Q131.04688 171.74948 131.45312 171.34323Q131.875 170.92136 131.875 170.15573Q131.875 169.42136 131.42188 169.03073Q130.96875 168.62448 130.09375 168.60886L129.28125 168.60886L129.28125 167.71823ZM138.26562 172.5151L137.1875 172.5151L137.1875 165.29636L135.0 166.09323L135.0 165.10886L138.10938 163.93698L138.26562 163.93698L138.26562 172.5151ZM145.26562 172.5151L144.1875 172.5151L144.1875 165.29636L142.0 166.09323L142.0 165.10886L145.10938 163.93698L145.26562 163.93698L145.26562 172.5151ZM154.29688 172.5151L148.70312 172.5151L148.70312 171.73386L151.65625 168.4526Q152.3125 167.7026 152.5625 167.24948Q152.8125 166.78073 152.8125 166.28073Q152.8125 165.60886 152.40625 165.18698Q152.01562 164.74948 151.32812 164.74948Q150.53125 164.74948 150.07812 165.21823Q149.625 165.67136 149.625 166.49948L148.54688 166.49948Q148.54688 165.31198 149.29688 164.59323Q150.0625 163.85886 151.32812 163.85886Q152.53125 163.85886 153.21875 164.48386Q153.90625 165.10886 153.90625 166.15573Q153.90625 167.40573 152.29688 169.15573L150.01562 171.62448L154.29688 171.62448L154.29688 172.5151Z" fill-rule="nonzero"/><path stroke="#4285f4" stroke-width="3.0" stroke-linejoin="round" stroke-linecap="round" d="M250.29688 186.4809L244.70312 186.4809L244.70312 185.69965L247.65625 182.4184Q248.3125 181.6684 248.5625 181.21527Q248.8125 180.74652 248.8125 180.24652Q248.8125 179.57465 248.40625 179.15277Q248.01562 178.71527 247.32812 178.71527Q246.53125 178.71527 246.07812 179.18402Q245.625 179.63715 245.625 180.46527L244.54688 180.46527Q244.54688 179.27777 245.29688 178.55902Q246.0625 177.82465 247.32812 177.82465Q248.53125 177.82465 249.21875 178.44965Q249.90625 179.07465 249.90625 180.12152Q249.90625 181.37152 248.29688 183.12152L246.01562 185.59027L250.29688 185.59027L250.29688 186.4809ZM252.20312 182.19965L252.64062 177.94965L257.01562 177.94965L257.01562 178.94965L253.5625 178.94965L253.29688 181.27777Q253.9375 180.90277 254.73438 180.90277Q255.89062 180.90277 256.57812 181.68402Q257.26562 182.44965 257.26562 183.76215Q257.26562 185.07465 256.54688 185.84027Q255.84375 186.6059 254.5625 186.6059Q253.4375 186.6059 252.71875 185.9809Q252.0 185.34027 251.90625 184.2309L252.92188 184.2309Q253.03125 184.96527 253.45312 185.34027Q253.875 185.71527 254.5625 185.71527Q255.3125 185.71527 255.75 185.19965Q256.1875 184.68402 256.1875 183.77777Q256.1875 182.9184 255.71875 182.40277Q255.25 181.88715 254.46875 181.88715Q253.76562 181.88715 253.35938 182.18402L253.07812 182.4184L252.20312 182.19965ZM264.21875 178.55902L260.6875 186.4809L259.54688 186.4809L263.0625 178.84027L258.45312 178.84027L258.45312 177.94965L264.21875 177.94965L264.21875 178.55902ZM269.96875 177.94965L269.96875 178.8559L269.76562 178.8559Q268.5 178.88715 267.75 179.62152Q267.0 180.34027 266.875 181.65277Q267.5625 180.88715 268.71875 180.88715Q269.82812 180.88715 270.5 181.6684Q271.17188 182.44965 271.17188 183.69965Q271.17188 185.01215 270.45312 185.80902Q269.73438 186.6059 268.51562 186.6059Q267.29688 186.6059 266.53125 185.6684Q265.78125 184.71527 265.78125 183.2309L265.78125 182.82465Q265.78125 180.46527 266.78125 179.21527Q267.78125 177.96527 269.76562 177.94965L269.96875 177.94965ZM268.54688 181.7934Q267.98438 181.7934 267.51562 182.12152Q267.04688 182.44965 266.85938 182.96527L266.85938 183.3559Q266.85938 184.4184 267.32812 185.05902Q267.8125 185.69965 268.51562 185.69965Q269.25 185.69965 269.67188 185.1684Q270.09375 184.62152 270.09375 183.74652Q270.09375 182.87152 269.67188 182.34027Q269.25 181.7934 268.54688 181.7934Z" fill-rule="nonzero"/><path fill="#ffffff" d="M250.29688 186.4809L244.70312 186.4809L244.70312 185.69965L247.65625 182.4184Q248.3125 181.6684 248.5625 181.21527Q248.8125 180.74652 248.8125 180.24652Q248.8125 179.57465 248.40625 179.15277Q248.01562 178.71527 247.32812 178.71527Q246.53125 178.71527 246.07812 179.18402Q245.625 179.63715 245.625 180.46527L244.54688 180.46527Q244.54688 179.27777 245.29688 178.55902Q246.0625 177.82465 247.32812 177.82465Q248.53125 177.82465 249.21875 178.44965Q249.90625 179.07465 249.90625 180.12152Q249.90625 181.37152 248.29688 183.12152L246.01562 185.59027L250.29688 185.59027L250.29688 186.4809ZM252.20312 182.19965L252.64062 177.94965L257.01562 177.94965L257.01562 178.94965L253.5625 178.94965L253.29688 181.27777Q253.9375 180.90277 254.73438 180.90277Q255.89062 180.90277 256.57812 181.68402Q257.26562 182.44965 257.26562 183.76215Q257.26562 185.07465 256.54688 185.84027Q255.84375 186.6059 254.5625 186.6059Q253.4375 186.6059 252.71875 185.9809Q252.0 185.34027 251.90625 184.2309L252.92188 184.2309Q253.03125 184.96527 253.45312 185.34027Q253.875 185.71527 254.5625 185.71527Q255.3125 185.71527 255.75 185.19965Q256.1875 184.68402 256.1875 183.77777Q256.1875 182.9184 255.71875 182.40277Q255.25 181.88715 254.46875 181.88715Q253.76562 181.88715 253.35938 182.18402L253.07812 182.4184L252.20312 182.19965ZM264.21875 178.55902L260.6875 186.4809L259.54688 186.4809L263.0625 178.84027L258.45312 178.84027L258.45312 177.94965L264.21875 177.94965L264.21875 178.55902ZM269.96875 177.94965L269.96875 178.8559L269.76562 178.8559Q268.5 178.88715 267.75 179.62152Q267.0 180.34027 266.875 181.65277Q267.5625 180.88715 268.71875 180.88715Q269.82812 180.88715 270.5 181.6684Q271.17188 182.44965 271.17188 183.69965Q271.17188 185.01215 270.45312 185.80902Q269.73438 186.6059 268.51562 186.6059Q267.29688 186.6059 266.53125 185.6684Q265.78125 184.71527 265.78125 183.2309L265.78125 182.82465Q265.78125 180.46527 266.78125 179.21527Q267.78125 177.96527 269.76562 177.94965L269.96875 177.94965ZM268.54688 181.7934Q267.98438 181.7934 267.51562 182.12152Q267.04688 182.44965 266.85938 182.96527L266.85938 183.3559Q266.85938 184.4184 267.32812 185.05902Q267.8125 185.69965 268.51562 185.69965Q269.25 185.69965 269.67188 185.1684Q270.09375 184.62152 270.09375 183.74652Q270.09375 182.87152 269.67188 182.34027Q269.25 181.7934 268.54688 181.7934Z" fill-rule="nonzero"/><path stroke="#4285f4" stroke-width="3.0" stroke-linejoin="round" stroke-linecap="round" d="M361.20312 99.4472L361.64062 95.1972L366.01562 95.1972L366.01562 96.1972L362.5625 96.1972L362.29688 98.52532Q362.9375 98.15032 363.73438 98.15032Q364.89062 98.15032 365.57812 98.93157Q366.26562 99.6972 366.26562 101.0097Q366.26562 102.3222 365.54688 103.08782Q364.84375 103.85345 363.5625 103.85345Q362.4375 103.85345 361.71875 103.22845Q361.0 102.58782 360.90625 101.47845L361.92188 101.47845Q362.03125 102.21282 362.45312 102.58782Q362.875 102.96282 363.5625 102.96282Q364.3125 102.96282 364.75 102.4472Q365.1875 101.93157 365.1875 101.02532Q365.1875 100.16595 364.71875 99.65032Q364.25 99.1347 363.46875 99.1347Q362.76562 99.1347 362.35938 99.43157L362.07812 99.66595L361.20312 99.4472ZM373.21875 95.80657L369.6875 103.72845L368.54688 103.72845L372.0625 96.08782L367.45312 96.08782L367.45312 95.1972L373.21875 95.1972L373.21875 95.80657ZM375.20312 99.4472L375.64062 95.1972L380.01562 95.1972L380.01562 96.1972L376.5625 96.1972L376.29688 98.52532Q376.9375 98.15032 377.73438 98.15032Q378.89062 98.15032 379.57812 98.93157Q380.26562 99.6972 380.26562 101.0097Q380.26562 102.3222 379.54688 103.08782Q378.84375 103.85345 377.5625 103.85345Q376.4375 103.85345 375.71875 103.22845Q375.0 102.58782 374.90625 101.47845L375.92188 101.47845Q376.03125 102.21282 376.45312 102.58782Q376.875 102.96282 377.5625 102.96282Q378.3125 102.96282 378.75 102.4472Q379.1875 101.93157 379.1875 101.02532Q379.1875 100.16595 378.71875 99.65032Q378.25 99.1347 377.46875 99.1347Q376.76562 99.1347 376.35938 99.43157L376.07812 99.66595L375.20312 99.4472ZM387.29688 103.72845L381.70312 103.72845L381.70312 102.9472L384.65625 99.66595Q385.3125 98.91595 385.5625 98.46282Q385.8125 97.99407 385.8125 97.49407Q385.8125 96.8222 385.40625 96.40032Q385.01562 95.96282 384.32812 95.96282Q383.53125 95.96282 383.07812 96.43157Q382.625 96.8847 382.625 97.71282L381.54688 97.71282Q381.54688 96.52532 382.29688 95.80657Q383.0625 95.0722 384.32812 95.0722Q385.53125 95.0722 386.21875 95.6972Q386.90625 96.3222 386.90625 97.36907Q386.90625 98.61907 385.29688 100.36907L383.01562 102.83782L387.29688 102.83782L387.29688 103.72845Z" fill-rule="nonzero"/><path fill="#ffffff" d="M361.20312 99.4472L361.64062 95.1972L366.01562 95.1972L366.01562 96.1972L362.5625 96.1972L362.29688 98.52532Q362.9375 98.15032 363.73438 98.15032Q364.89062 98.15032 365.57812 98.93157Q366.26562 99.6972 366.26562 101.0097Q366.26562 102.3222 365.54688 103.08782Q364.84375 103.85345 363.5625 103.85345Q362.4375 103.85345 361.71875 103.22845Q361.0 102.58782 360.90625 101.47845L361.92188 101.47845Q362.03125 102.21282 362.45312 102.58782Q362.875 102.96282 363.5625 102.96282Q364.3125 102.96282 364.75 102.4472Q365.1875 101.93157 365.1875 101.02532Q365.1875 100.16595 364.71875 99.65032Q364.25 99.1347 363.46875 99.1347Q362.76562 99.1347 362.35938 99.43157L362.07812 99.66595L361.20312 99.4472ZM373.21875 95.80657L369.6875 103.72845L368.54688 103.72845L372.0625 96.08782L367.45312 96.08782L367.45312 95.1972L373.21875 95.1972L373.21875 95.80657ZM375.20312 99.4472L375.64062 95.1972L380.01562 95.1972L380.01562 96.1972L376.5625 96.1972L376.29688 98.52532Q376.9375 98.15032 377.73438 98.15032Q378.89062 98.15032 379.57812 98.93157Q380.26562 99.6972 380.26562 101.0097Q380.26562 102.3222 379.54688 103.08782Q378.84375 103.85345 377.5625 103.85345Q376.4375 103.85345 375.71875 103.22845Q375.0 102.58782 374.90625 101.47845L375.92188 101.47845Q376.03125 102.21282 376.45312 102.58782Q376.875 102.96282 377.5625 102.96282Q378.3125 102.96282 378.75 102.4472Q379.1875 101.93157 379.1875 101.02532Q379.1875 100.16595 378.71875 99.65032Q378.25 99.1347 377.46875 99.1347Q376.76562 99.1347 376.35938 99.43157L376.07812 99.66595L375.20312 99.4472ZM387.29688 103.72845L381.70312 103.72845L381.70312 102.9472L384.65625 99.66595Q385.3125 98.91595 385.5625 98.46282Q385.8125 97.99407 385.8125 97.49407Q385.8125 96.8222 385.40625 96.40032Q385.01562 95.96282 384.32812 95.96282Q383.53125 95.96282 383.07812 96.43157Q382.625 96.8847 382.625 97.71282L381.54688 97.71282Q381.54688 96.52532 382.29688 95.80657Q383.0625 95.0722 384.32812 95.0722Q385.53125 95.0722 386.21875 95.6972Q386.90625 96.3222 386.90625 97.36907Q386.90625 98.61907 385.29688 100.36907L383.01562 102.83782L387.29688 102.83782L387.29688 103.72845Z" fill-rule="nonzero"/><path stroke="#ea4335" stroke-width="3.0" stroke-linejoin="round" stroke-linecap="round" d="M169.26562 224.522L168.1875 224.522L168.1875 217.30325L166.0 218.10013L166.0 217.11575L169.10938 215.94388L169.26562 215.94388L169.26562 224.522ZM176.26562 224.522L175.1875 224.522L175.1875 217.30325L173.0 218.10013L173.0 217.11575L176.10938 215.94388L176.26562 215.94388L176.26562 224.522ZM183.26562 224.522L182.1875 224.522L182.1875 217.30325L180.0 218.10013L180.0 217.11575L183.10938 215.94388L183.26562 215.94388L183.26562 224.522ZM190.96875 215.99075L190.96875 216.897L190.76562 216.897Q189.5 216.92825 188.75 217.66263Q188.0 218.38138 187.875 219.69388Q188.5625 218.92825 189.71875 218.92825Q190.82812 218.92825 191.5 219.7095Q192.17188 220.49075 192.17188 221.74075Q192.17188 223.05325 191.45312 223.85013Q190.73438 224.647 189.51562 224.647Q188.29688 224.647 187.53125 223.7095Q186.78125 222.75638 186.78125 221.272L186.78125 220.86575Q186.78125 218.50638 187.78125 217.25638Q188.78125 216.00638 190.76562 215.99075L190.96875 215.99075ZM189.54688 219.8345Q188.98438 219.8345 188.51562 220.16263Q188.04688 220.49075 187.85938 221.00638L187.85938 221.397Q187.85938 222.4595 188.32812 223.10013Q188.8125 223.74075 189.51562 223.74075Q190.25 223.74075 190.67188 223.2095Q191.09375 222.66263 191.09375 221.78763Q191.09375 220.91263 190.67188 220.38138Q190.25 219.8345 189.54688 219.8345Z" fill-rule="nonzero"/><path fill="#ffffff" d="M169.26562 224.522L168.1875 224.522L168.1875 217.30325L166.0 218.10013L166.0 217.11575L169.10938 215.94388L169.26562 215.94388L169.26562 224.522ZM176.26562 224.522L175.1875 224.522L175.1875 217.30325L173.0 218.10013L173.0 217.11575L176.10938 215.94388L176.26562 215.94388L176.26562 224.522ZM183.26562 224.522L182.1875 224.522L182.1875 217.30325L180.0 218.10013L180.0 217.11575L183.10938 215.94388L183.26562 215.94388L183.26562 224.522ZM190.96875 215.99075L190.96875 216.897L190.76562 216.897Q189.5 216.92825 188.75 217.66263Q188.0 218.38138 187.875 219.69388Q188.5625 218.92825 189.71875 218.92825Q190.82812 218.92825 191.5 219.7095Q192.17188 220.49075 192.17188 221.74075Q192.17188 223.05325 191.45312 223.85013Q190.73438 224.647 189.51562 224.647Q188.29688 224.647 187.53125 223.7095Q186.78125 222.75638 186.78125 221.272L186.78125 220.86575Q186.78125 218.50638 187.78125 217.25638Q188.78125 216.00638 190.76562 215.99075L190.96875 215.99075ZM189.54688 219.8345Q188.98438 219.8345 188.51562 220.16263Q188.04688 220.49075 187.85938 221.00638L187.85938 221.397Q187.85938 222.4595 188.32812 223.10013Q188.8125 223.74075 189.51562 223.74075Q190.25 223.74075 190.67188 223.2095Q191.09375 222.66263 191.09375 221.78763Q191.09375 220.91263 190.67188 220.38138Q190.25 219.8345 189.54688 219.8345Z" fill-rule="nonzero"/><path stroke="#ea4335" stroke-width="3.0" stroke-linejoin="round" stroke-linecap="round" d="M286.26562 225.30367L285.1875 225.30367L285.1875 218.08492L283.0 218.88179L283.0 217.89742L286.10938 216.72554L286.26562 216.72554L286.26562 225.30367ZM295.0625 221.66304Q295.0625 223.56929 294.40625 224.50679Q293.76562 225.42867 292.375 225.42867Q291.01562 225.42867 290.35938 224.52242Q289.70312 223.61617 289.67188 221.80367L289.67188 220.36617Q289.67188 218.47554 290.3125 217.56929Q290.96875 216.64742 292.35938 216.64742Q293.73438 216.64742 294.39062 217.53804Q295.04688 218.41304 295.0625 220.25679L295.0625 221.66304ZM293.96875 220.17867Q293.96875 218.80367 293.57812 218.17867Q293.20312 217.53804 292.35938 217.53804Q291.53125 217.53804 291.14062 218.17867Q290.76562 218.80367 290.76562 220.10054L290.76562 221.83492Q290.76562 223.20992 291.15625 223.88179Q291.5625 224.53804 292.375 224.53804Q293.17188 224.53804 293.5625 223.91304Q293.95312 223.28804 293.96875 221.95992L293.96875 220.17867ZM301.89062 218.99117Q301.89062 219.63179 301.54688 220.13179Q301.20312 220.63179 300.64062 220.91304Q301.29688 221.19429 301.6875 221.75679Q302.07812 222.30367 302.07812 223.00679Q302.07812 224.10054 301.32812 224.77242Q300.59375 225.42867 299.375 225.42867Q298.14062 225.42867 297.39062 224.77242Q296.65625 224.10054 296.65625 223.00679Q296.65625 222.30367 297.03125 221.75679Q297.40625 221.19429 298.07812 220.91304Q297.51562 220.63179 297.1875 220.13179Q296.85938 219.63179 296.85938 218.99117Q296.85938 217.91304 297.54688 217.28804Q298.23438 216.64742 299.375 216.64742Q300.5 216.64742 301.1875 217.28804Q301.89062 217.91304 301.89062 218.99117ZM301.0 222.97554Q301.0 222.25679 300.54688 221.81929Q300.09375 221.36617 299.35938 221.36617Q298.625 221.36617 298.17188 221.81929Q297.73438 222.25679 297.73438 222.99117Q297.73438 223.70992 298.17188 224.13179Q298.60938 224.53804 299.375 224.53804Q300.125 224.53804 300.5625 224.11617Q301.0 223.69429 301.0 222.97554ZM299.375 217.53804Q298.73438 217.53804 298.32812 217.94429Q297.9375 218.33492 297.9375 219.02242Q297.9375 219.66304 298.32812 220.06929Q298.71875 220.47554 299.35938 220.47554Q300.01562 220.47554 300.40625 220.06929Q300.79688 219.66304 300.79688 219.02242Q300.79688 218.36617 300.39062 217.95992Q299.98438 217.53804 299.375 217.53804ZM307.96875 216.77242L307.96875 217.67867L307.76562 217.67867Q306.5 217.70992 305.75 218.44429Q305.0 219.16304 304.875 220.47554Q305.5625 219.70992 306.71875 219.70992Q307.82812 219.70992 308.5 220.49117Q309.17188 221.27242 309.17188 222.52242Q309.17188 223.83492 308.45312 224.63179Q307.73438 225.42867 306.51562 225.42867Q305.29688 225.42867 304.53125 224.49117Q303.78125 223.53804 303.78125 222.05367L303.78125 221.64742Q303.78125 219.28804 304.78125 218.03804Q305.78125 216.78804 307.76562 216.77242L307.96875 216.77242ZM306.54688 220.61617Q305.98438 220.61617 305.51562 220.94429Q305.04688 221.27242 304.85938 221.78804L304.85938 222.17867Q304.85938 223.24117 305.32812 223.88179Q305.8125 224.52242 306.51562 224.52242Q307.25 224.52242 307.67188 223.99117Q308.09375 223.44429 308.09375 222.56929Q308.09375 221.69429 307.67188 221.16304Q307.25 220.61617 306.54688 220.61617Z" fill-rule="nonzero"/><path fill="#ffffff" d="M286.26562 225.30367L285.1875 225.30367L285.1875 218.08492L283.0 218.88179L283.0 217.89742L286.10938 216.72554L286.26562 216.72554L286.26562 225.30367ZM295.0625 221.66304Q295.0625 223.56929 294.40625 224.50679Q293.76562 225.42867 292.375 225.42867Q291.01562 225.42867 290.35938 224.52242Q289.70312 223.61617 289.67188 221.80367L289.67188 220.36617Q289.67188 218.47554 290.3125 217.56929Q290.96875 216.64742 292.35938 216.64742Q293.73438 216.64742 294.39062 217.53804Q295.04688 218.41304 295.0625 220.25679L295.0625 221.66304ZM293.96875 220.17867Q293.96875 218.80367 293.57812 218.17867Q293.20312 217.53804 292.35938 217.53804Q291.53125 217.53804 291.14062 218.17867Q290.76562 218.80367 290.76562 220.10054L290.76562 221.83492Q290.76562 223.20992 291.15625 223.88179Q291.5625 224.53804 292.375 224.53804Q293.17188 224.53804 293.5625 223.91304Q293.95312 223.28804 293.96875 221.95992L293.96875 220.17867ZM301.89062 218.99117Q301.89062 219.63179 301.54688 220.13179Q301.20312 220.63179 300.64062 220.91304Q301.29688 221.19429 301.6875 221.75679Q302.07812 222.30367 302.07812 223.00679Q302.07812 224.10054 301.32812 224.77242Q300.59375 225.42867 299.375 225.42867Q298.14062 225.42867 297.39062 224.77242Q296.65625 224.10054 296.65625 223.00679Q296.65625 222.30367 297.03125 221.75679Q297.40625 221.19429 298.07812 220.91304Q297.51562 220.63179 297.1875 220.13179Q296.85938 219.63179 296.85938 218.99117Q296.85938 217.91304 297.54688 217.28804Q298.23438 216.64742 299.375 216.64742Q300.5 216.64742 301.1875 217.28804Q301.89062 217.91304 301.89062 218.99117ZM301.0 222.97554Q301.0 222.25679 300.54688 221.81929Q300.09375 221.36617 299.35938 221.36617Q298.625 221.36617 298.17188 221.81929Q297.73438 222.25679 297.73438 222.99117Q297.73438 223.70992 298.17188 224.13179Q298.60938 224.53804 299.375 224.53804Q300.125 224.53804 300.5625 224.11617Q301.0 223.69429 301.0 222.97554ZM299.375 217.53804Q298.73438 217.53804 298.32812 217.94429Q297.9375 218.33492 297.9375 219.02242Q297.9375 219.66304 298.32812 220.06929Q298.71875 220.47554 299.35938 220.47554Q300.01562 220.47554 300.40625 220.06929Q300.79688 219.66304 300.79688 219.02242Q300.79688 218.36617 300.39062 217.95992Q299.98438 217.53804 299.375 217.53804ZM307.96875 216.77242L307.96875 217.67867L307.76562 217.67867Q306.5 217.70992 305.75 218.44429Q305.0 219.16304 304.875 220.47554Q305.5625 219.70992 306.71875 219.70992Q307.82812 219.70992 308.5 220.49117Q309.17188 221.27242 309.17188 222.52242Q309.17188 223.83492 308.45312 224.63179Q307.73438 225.42867 306.51562 225.42867Q305.29688 225.42867 304.53125 224.49117Q303.78125 223.53804 303.78125 222.05367L303.78125 221.64742Q303.78125 219.28804 304.78125 218.03804Q305.78125 216.78804 307.76562 216.77242L307.96875 216.77242ZM306.54688 220.61617Q305.98438 220.61617 305.51562 220.94429Q305.04688 221.27242 304.85938 221.78804L304.85938 222.17867Q304.85938 223.24117 305.32812 223.88179Q305.8125 224.52242 306.51562 224.52242Q307.25 224.52242 307.67188 223.99117Q308.09375 223.44429 308.09375 222.56929Q308.09375 221.69429 307.67188 221.16304Q307.25 220.61617 306.54688 220.61617Z" fill-rule="nonzero"/><path stroke="#ea4335" stroke-width="3.0" stroke-linejoin="round" stroke-linecap="round" d="M404.29688 191.4575L398.70312 191.4575L398.70312 190.67625L401.65625 187.395Q402.3125 186.645 402.5625 186.19188Q402.8125 185.72313 402.8125 185.22313Q402.8125 184.55125 402.40625 184.12938Q402.01562 183.69188 401.32812 183.69188Q400.53125 183.69188 400.07812 184.16063Q399.625 184.61375 399.625 185.44188L398.54688 185.44188Q398.54688 184.25438 399.29688 183.53563Q400.0625 182.80125 401.32812 182.80125Q402.53125 182.80125 403.21875 183.42625Q403.90625 184.05125 403.90625 185.09813Q403.90625 186.34813 402.29688 188.09813L400.01562 190.56688L404.29688 190.56688L404.29688 191.4575ZM407.28125 186.66063L408.09375 186.66063Q408.875 186.645 409.3125 186.25438Q409.75 185.86375 409.75 185.19188Q409.75 183.69188 408.25 183.69188Q407.54688 183.69188 407.125 184.09813Q406.71875 184.50438 406.71875 185.16063L405.625 185.16063Q405.625 184.145 406.35938 183.47313Q407.10938 182.80125 408.25 182.80125Q409.45312 182.80125 410.14062 183.44188Q410.82812 184.0825 410.82812 185.22313Q410.82812 185.78563 410.46875 186.30125Q410.10938 186.81688 409.48438 187.0825Q410.1875 187.30125 410.5625 187.81688Q410.95312 188.3325 410.95312 189.0825Q410.95312 190.22313 410.20312 190.91063Q409.45312 191.5825 408.25 191.5825Q407.0625 191.5825 406.29688 190.92625Q405.54688 190.27 405.54688 189.2075L406.64062 189.2075Q406.64062 189.87938 407.07812 190.28563Q407.51562 190.69188 408.26562 190.69188Q409.04688 190.69188 409.45312 190.28563Q409.875 189.86375 409.875 189.09813Q409.875 188.36375 409.42188 187.97313Q408.96875 187.56688 408.09375 187.55125L407.28125 187.55125L407.28125 186.66063ZM417.89062 185.145Q417.89062 185.78563 417.54688 186.28563Q417.20312 186.78563 416.64062 187.06688Q417.29688 187.34813 417.6875 187.91063Q418.07812 188.4575 418.07812 189.16063Q418.07812 190.25438 417.32812 190.92625Q416.59375 191.5825 415.375 191.5825Q414.14062 191.5825 413.39062 190.92625Q412.65625 190.25438 412.65625 189.16063Q412.65625 188.4575 413.03125 187.91063Q413.40625 187.34813 414.07812 187.06688Q413.51562 186.78563 413.1875 186.28563Q412.85938 185.78563 412.85938 185.145Q412.85938 184.06688 413.54688 183.44188Q414.23438 182.80125 415.375 182.80125Q416.5 182.80125 417.1875 183.44188Q417.89062 184.06688 417.89062 185.145ZM417.0 189.12938Q417.0 188.41063 416.54688 187.97313Q416.09375 187.52 415.35938 187.52Q414.625 187.52 414.17188 187.97313Q413.73438 188.41063 413.73438 189.145Q413.73438 189.86375 414.17188 190.28563Q414.60938 190.69188 415.375 190.69188Q416.125 190.69188 416.5625 190.27Q417.0 189.84813 417.0 189.12938ZM415.375 183.69188Q414.73438 183.69188 414.32812 184.09813Q413.9375 184.48875 413.9375 185.17625Q413.9375 185.81688 414.32812 186.22313Q414.71875 186.62938 415.35938 186.62938Q416.01562 186.62938 416.40625 186.22313Q416.79688 185.81688 416.79688 185.17625Q416.79688 184.52 416.39062 184.11375Q415.98438 183.69188 415.375 183.69188ZM420.20312 187.17625L420.64062 182.92625L425.01562 182.92625L425.01562 183.92625L421.5625 183.92625L421.29688 186.25438Q421.9375 185.87938 422.73438 185.87938Q423.89062 185.87938 424.57812 186.66063Q425.26562 187.42625 425.26562 188.73875Q425.26562 190.05125 424.54688 190.81688Q423.84375 191.5825 422.5625 191.5825Q421.4375 191.5825 420.71875 190.9575Q420.0 190.31688 419.90625 189.2075L420.92188 189.2075Q421.03125 189.94188 421.45312 190.31688Q421.875 190.69188 422.5625 190.69188Q423.3125 190.69188 423.75 190.17625Q424.1875 189.66063 424.1875 188.75438Q424.1875 187.895 423.71875 187.37938Q423.25 186.86375 422.46875 186.86375Q421.76562 186.86375 421.35938 187.16063L421.07812 187.395L420.20312 187.17625Z" fill-rule="nonzero"/><path fill="#ffffff" d="M404.29688 191.4575L398.70312 191.4575L398.70312 190.67625L401.65625 187.395Q402.3125 186.645 402.5625 186.19188Q402.8125 185.72313 402.8125 185.22313Q402.8125 184.55125 402.40625 184.12938Q402.01562 183.69188 401.32812 183.69188Q400.53125 183.69188 400.07812 184.16063Q399.625 184.61375 399.625 185.44188L398.54688 185.44188Q398.54688 184.25438 399.29688 183.53563Q400.0625 182.80125 401.32812 182.80125Q402.53125 182.80125 403.21875 183.42625Q403.90625 184.05125 403.90625 185.09813Q403.90625 186.34813 402.29688 188.09813L400.01562 190.56688L404.29688 190.56688L404.29688 191.4575ZM407.28125 186.66063L408.09375 186.66063Q408.875 186.645 409.3125 186.25438Q409.75 185.86375 409.75 185.19188Q409.75 183.69188 408.25 183.69188Q407.54688 183.69188 407.125 184.09813Q406.71875 184.50438 406.71875 185.16063L405.625 185.16063Q405.625 184.145 406.35938 183.47313Q407.10938 182.80125 408.25 182.80125Q409.45312 182.80125 410.14062 183.44188Q410.82812 184.0825 410.82812 185.22313Q410.82812 185.78563 410.46875 186.30125Q410.10938 186.81688 409.48438 187.0825Q410.1875 187.30125 410.5625 187.81688Q410.95312 188.3325 410.95312 189.0825Q410.95312 190.22313 410.20312 190.91063Q409.45312 191.5825 408.25 191.5825Q407.0625 191.5825 406.29688 190.92625Q405.54688 190.27 405.54688 189.2075L406.64062 189.2075Q406.64062 189.87938 407.07812 190.28563Q407.51562 190.69188 408.26562 190.69188Q409.04688 190.69188 409.45312 190.28563Q409.875 189.86375 409.875 189.09813Q409.875 188.36375 409.42188 187.97313Q408.96875 187.56688 408.09375 187.55125L407.28125 187.55125L407.28125 186.66063ZM417.89062 185.145Q417.89062 185.78563 417.54688 186.28563Q417.20312 186.78563 416.64062 187.06688Q417.29688 187.34813 417.6875 187.91063Q418.07812 188.4575 418.07812 189.16063Q418.07812 190.25438 417.32812 190.92625Q416.59375 191.5825 415.375 191.5825Q414.14062 191.5825 413.39062 190.92625Q412.65625 190.25438 412.65625 189.16063Q412.65625 188.4575 413.03125 187.91063Q413.40625 187.34813 414.07812 187.06688Q413.51562 186.78563 413.1875 186.28563Q412.85938 185.78563 412.85938 185.145Q412.85938 184.06688 413.54688 183.44188Q414.23438 182.80125 415.375 182.80125Q416.5 182.80125 417.1875 183.44188Q417.89062 184.06688 417.89062 185.145ZM417.0 189.12938Q417.0 188.41063 416.54688 187.97313Q416.09375 187.52 415.35938 187.52Q414.625 187.52 414.17188 187.97313Q413.73438 188.41063 413.73438 189.145Q413.73438 189.86375 414.17188 190.28563Q414.60938 190.69188 415.375 190.69188Q416.125 190.69188 416.5625 190.27Q417.0 189.84813 417.0 189.12938ZM415.375 183.69188Q414.73438 183.69188 414.32812 184.09813Q413.9375 184.48875 413.9375 185.17625Q413.9375 185.81688 414.32812 186.22313Q414.71875 186.62938 415.35938 186.62938Q416.01562 186.62938 416.40625 186.22313Q416.79688 185.81688 416.79688 185.17625Q416.79688 184.52 416.39062 184.11375Q415.98438 183.69188 415.375 183.69188ZM420.20312 187.17625L420.64062 182.92625L425.01562 182.92625L425.01562 183.92625L421.5625 183.92625L421.29688 186.25438Q421.9375 185.87938 422.73438 185.87938Q423.89062 185.87938 424.57812 186.66063Q425.26562 187.42625 425.26562 188.73875Q425.26562 190.05125 424.54688 190.81688Q423.84375 191.5825 422.5625 191.5825Q421.4375 191.5825 420.71875 190.9575Q420.0 190.31688 419.90625 189.2075L420.92188 189.2075Q421.03125 189.94188 421.45312 190.31688Q421.875 190.69188 422.5625 190.69188Q423.3125 190.69188 423.75 190.17625Q424.1875 189.66063 424.1875 188.75438Q424.1875 187.895 423.71875 187.37938Q423.25 186.86375 422.46875 186.86375Q421.76562 186.86375 421.35938 187.16063L421.07812 187.395L420.20312 187.17625Z" fill-rule="nonzero"/><path fill="#000000" d="M222.79688 285.8L222.79688 279.58124L223.73438 279.58124L223.73438 280.45624Q224.42188 279.4406 225.71875 279.4406Q226.28125 279.4406 226.75 279.64374Q227.23438 279.84686 227.46875 280.175Q227.70312 280.5031 227.79688 280.9406Q227.84375 281.2375 227.84375 281.97186L227.84375 285.8L226.79688 285.8L226.79688 282.01874Q226.79688 281.3625 226.67188 281.05Q226.54688 280.7375 226.23438 280.55Q225.92188 280.34686 225.5 280.34686Q224.82812 280.34686 224.32812 280.78436Q223.84375 281.20624 223.84375 282.39374L223.84375 285.8L222.79688 285.8ZM230.04688 285.8L230.04688 280.39374L229.10938 280.39374L229.10938 279.58124L230.04688 279.58124L230.04688 278.90936Q230.04688 278.28436 230.15625 277.9875Q230.3125 277.5656 230.6875 277.3156Q231.07812 277.0656 231.76562 277.0656Q232.21875 277.0656 232.75 277.175L232.59375 278.08124Q232.26562 278.03436 231.96875 278.03436Q231.48438 278.03436 231.28125 278.2375Q231.09375 278.4406 231.09375 279.0031L231.09375 279.58124L232.3125 279.58124L232.3125 280.39374L231.09375 280.39374L231.09375 285.8L230.04688 285.8ZM232.375 283.9406L233.40625 283.78436Q233.5 284.40936 233.89062 284.7375Q234.29688 285.0656 235.03125 285.0656Q235.75 285.0656 236.09375 284.78436Q236.45312 284.4875 236.45312 284.08124Q236.45312 283.72186 236.14062 283.51874Q235.92188 283.3781 235.0625 283.15936Q233.90625 282.8625 233.45312 282.65936Q233.01562 282.4406 232.78125 282.0656Q232.54688 281.6906 232.54688 281.22186Q232.54688 280.8156 232.73438 280.45624Q232.92188 280.09686 233.25 279.8625Q233.5 279.6906 233.92188 279.5656Q234.34375 279.4406 234.84375 279.4406Q235.5625 279.4406 236.10938 279.65936Q236.67188 279.8625 236.9375 280.22186Q237.20312 280.58124 237.29688 281.175L236.26562 281.3156Q236.20312 280.84686 235.85938 280.58124Q235.53125 280.3 234.90625 280.3Q234.1875 280.3 233.875 280.55Q233.5625 280.78436 233.5625 281.1125Q233.5625 281.3156 233.6875 281.47186Q233.82812 281.64374 234.09375 281.7531Q234.25 281.8156 235.03125 282.01874Q236.15625 282.33124 236.59375 282.51874Q237.03125 282.70624 237.28125 283.0656Q237.53125 283.425 237.53125 283.97186Q237.53125 284.5031 237.21875 284.97186Q236.92188 285.425 236.34375 285.6906Q235.76562 285.9406 235.03125 285.9406Q233.8125 285.9406 233.17188 285.4406Q232.54688 284.925 232.375 283.9406ZM244.51562 285.8L242.15625 279.58124L243.26562 279.58124L244.60938 283.3Q244.8125 283.90936 245.0 284.55Q245.14062 284.0656 245.39062 283.3781L246.78125 279.58124L247.85938 279.58124L245.5 285.8L244.51562 285.8ZM252.04688 283.8L253.14062 283.925Q252.89062 284.8781 252.1875 285.40936Q251.48438 285.9406 250.40625 285.9406Q249.04688 285.9406 248.23438 285.09686Q247.4375 284.2531 247.4375 282.7375Q247.4375 281.175 248.25 280.3156Q249.0625 279.4406 250.34375 279.4406Q251.59375 279.4406 252.375 280.28436Q253.17188 281.1281 253.17188 282.675Q253.17188 282.76874 253.17188 282.95624L248.53125 282.95624Q248.59375 283.9875 249.10938 284.53436Q249.625 285.0656 250.40625 285.0656Q250.98438 285.0656 251.39062 284.76874Q251.8125 284.45624 252.04688 283.8ZM248.59375 282.09686L252.0625 282.09686Q252.0 281.3 251.67188 280.90936Q251.15625 280.3 250.35938 280.3Q249.625 280.3 249.125 280.78436Q248.64062 281.26874 248.59375 282.09686ZM254.78125 285.8L254.78125 279.58124L255.73438 279.58124L255.73438 280.51874Q256.09375 279.8625 256.39062 279.65936Q256.70312 279.4406 257.07812 279.4406Q257.60938 279.4406 258.15625 279.76874L257.79688 280.7531Q257.40625 280.51874 257.03125 280.51874Q256.67188 280.51874 256.39062 280.7375Q256.125 280.9406 256.01562 281.3156Q255.82812 281.8781 255.82812 282.53436L255.82812 285.8L254.78125 285.8ZM258.375 283.9406L259.40625 283.78436Q259.5 284.40936 259.89062 284.7375Q260.29688 285.0656 261.03125 285.0656Q261.75 285.0656 262.09375 284.78436Q262.45312 284.4875 262.45312 284.08124Q262.45312 283.72186 262.14062 283.51874Q261.92188 283.3781 261.0625 283.15936Q259.90625 282.8625 259.45312 282.65936Q259.01562 282.4406 258.78125 282.0656Q258.54688 281.6906 258.54688 281.22186Q258.54688 280.8156 258.73438 280.45624Q258.92188 280.09686 259.25 279.8625Q259.5 279.6906 259.92188 279.5656Q260.34375 279.4406 260.84375 279.4406Q261.5625 279.4406 262.10938 279.65936Q262.67188 279.8625 262.9375 280.22186Q263.20312 280.58124 263.29688 281.175L262.26562 281.3156Q262.20312 280.84686 261.85938 280.58124Q261.53125 280.3 260.90625 280.3Q260.1875 280.3 259.875 280.55Q259.5625 280.78436 259.5625 281.1125Q259.5625 281.3156 259.6875 281.47186Q259.82812 281.64374 260.09375 281.7531Q260.25 281.8156 261.03125 282.01874Q262.15625 282.33124 262.59375 282.51874Q263.03125 282.70624 263.28125 283.0656Q263.53125 283.425 263.53125 283.97186Q263.53125 284.5031 263.21875 284.97186Q262.92188 285.425 262.34375 285.6906Q261.76562 285.9406 261.03125 285.9406Q259.8125 285.9406 259.17188 285.4406Q258.54688 284.925 258.375 283.9406ZM265.79688 278.425L265.79688 277.20624L266.85938 277.20624L266.85938 278.425L265.79688 278.425ZM265.79688 285.8L265.79688 279.58124L266.85938 279.58124L266.85938 285.8L265.79688 285.8ZM268.40625 282.6906Q268.40625 280.95624 269.35938 280.1281Q270.15625 279.4406 271.3125 279.4406Q272.59375 279.4406 273.40625 280.28436Q274.23438 281.1125 274.23438 282.59686Q274.23438 283.8 273.875 284.4875Q273.51562 285.175 272.8125 285.5656Q272.125 285.9406 271.3125 285.9406Q270.01562 285.9406 269.20312 285.1125Q268.40625 284.26874 268.40625 282.6906ZM269.48438 282.6906Q269.48438 283.8781 270.0 284.47186Q270.53125 285.0656 271.3125 285.0656Q272.10938 285.0656 272.625 284.47186Q273.14062 283.8781 273.14062 282.65936Q273.14062 281.5031 272.60938 280.90936Q272.09375 280.3156 271.3125 280.3156Q270.53125 280.3156 270.0 280.90936Q269.48438 281.4875 269.48438 282.6906ZM275.79688 285.8L275.79688 279.58124L276.73438 279.58124L276.73438 280.45624Q277.42188 279.4406 278.71875 279.4406Q279.28125 279.4406 279.75 279.64374Q280.23438 279.84686 280.46875 280.175Q280.70312 280.5031 280.79688 280.9406Q280.84375 281.2375 280.84375 281.97186L280.84375 285.8L279.79688 285.8L279.79688 282.01874Q279.79688 281.3625 279.67188 281.05Q279.54688 280.7375 279.23438 280.55Q278.92188 280.34686 278.5 280.34686Q277.82812 280.34686 277.32812 280.78436Q276.84375 281.20624 276.84375 282.39374L276.84375 285.8L275.79688 285.8ZM289.85938 285.03436Q289.26562 285.53436 288.71875 285.7375Q288.1875 285.9406 287.5625 285.9406Q286.53125 285.9406 285.98438 285.4406Q285.4375 284.9406 285.4375 284.15936Q285.4375 283.70624 285.64062 283.33124Q285.84375 282.9406 286.1875 282.72186Q286.53125 282.4875 286.95312 282.3781Q287.25 282.28436 287.89062 282.20624Q289.15625 282.0656 289.76562 281.84686Q289.76562 281.6281 289.76562 281.58124Q289.76562 280.925 289.46875 280.65936Q289.0625 280.3156 288.26562 280.3156Q287.53125 280.3156 287.17188 280.58124Q286.8125 280.83124 286.64062 281.4875L285.60938 281.34686Q285.75 280.6906 286.07812 280.28436Q286.40625 279.8781 287.01562 279.65936Q287.625 279.4406 288.42188 279.4406Q289.21875 279.4406 289.71875 279.6281Q290.21875 279.8156 290.45312 280.09686Q290.6875 280.3781 290.78125 280.8156Q290.82812 281.08124 290.82812 281.78436L290.82812 283.1906Q290.82812 284.65936 290.89062 285.05Q290.96875 285.4406 291.17188 285.8L290.0625 285.8Q289.90625 285.47186 289.85938 285.03436ZM289.76562 282.675Q289.1875 282.90936 288.04688 283.08124Q287.39062 283.175 287.125 283.3Q286.85938 283.40936 286.70312 283.6281Q286.5625 283.84686 286.5625 284.1281Q286.5625 284.55 286.875 284.83124Q287.20312 285.1125 287.8125 285.1125Q288.42188 285.1125 288.89062 284.84686Q289.375 284.58124 289.59375 284.1125Q289.76562 283.7531 289.76562 283.0656L289.76562 282.675ZM292.79688 285.8L292.79688 279.58124L293.73438 279.58124L293.73438 280.45624Q294.42188 279.4406 295.71875 279.4406Q296.28125 279.4406 296.75 279.64374Q297.23438 279.84686 297.46875 280.175Q297.70312 280.5031 297.79688 280.9406Q297.84375 281.2375 297.84375 281.97186L297.84375 285.8L296.79688 285.8L296.79688 282.01874Q296.79688 281.3625 296.67188 281.05Q296.54688 280.7375 296.23438 280.55Q295.92188 280.34686 295.5 280.34686Q294.82812 280.34686 294.32812 280.78436Q293.84375 281.20624 293.84375 282.39374L293.84375 285.8L292.79688 285.8ZM303.82812 285.8L303.82812 285.01874Q303.23438 285.9406 302.09375 285.9406Q301.34375 285.9406 300.71875 285.53436Q300.09375 285.1125 299.75 284.3781Q299.40625 283.64374 299.40625 282.6906Q299.40625 281.76874 299.71875 281.0031Q300.03125 280.2375 300.65625 279.84686Q301.28125 279.4406 302.04688 279.4406Q302.60938 279.4406 303.04688 279.675Q303.48438 279.90936 303.76562 280.28436L303.76562 277.20624L304.8125 277.20624L304.8125 285.8L303.82812 285.8ZM300.5 282.6906Q300.5 283.89374 301.0 284.4875Q301.5 285.0656 302.1875 285.0656Q302.875 285.0656 303.35938 284.5031Q303.84375 283.9406 303.84375 282.78436Q303.84375 281.5031 303.34375 280.90936Q302.85938 280.3156 302.14062 280.3156Q301.4375 280.3156 300.96875 280.89374Q300.5 281.45624 300.5 282.6906ZM312.09375 284.8625L312.25 285.78436Q311.79688 285.8781 311.45312 285.8781Q310.875 285.8781 310.5625 285.70624Q310.25 285.51874 310.10938 285.22186Q309.98438 284.925 309.98438 283.97186L309.98438 280.39374L309.21875 280.39374L309.21875 279.58124L309.98438 279.58124L309.98438 278.03436L311.03125 277.40936L311.03125 279.58124L312.09375 279.58124L312.09375 280.39374L311.03125 280.39374L311.03125 284.03436Q311.03125 284.4875 311.07812 284.6125Q311.14062 284.7375 311.26562 284.8156Q311.39062 284.89374 311.625 284.89374Q311.8125 284.89374 312.09375 284.8625ZM312.75 288.1906L312.625 287.20624Q312.96875 287.3 313.23438 287.3Q313.57812 287.3 313.78125 287.175Q314.0 287.0656 314.14062 286.8625Q314.23438 286.6906 314.46875 286.0656Q314.48438 285.9875 314.5625 285.8156L312.1875 279.58124L313.32812 279.58124L314.625 283.175Q314.875 283.8625 315.07812 284.6281Q315.26562 283.89374 315.51562 283.20624L316.84375 279.58124L317.89062 279.58124L315.53125 285.90936Q315.14062 286.925 314.9375 287.3156Q314.65625 287.84686 314.28125 288.08124Q313.92188 288.33124 313.42188 288.33124Q313.125 288.33124 312.75 288.1906ZM317.79688 288.1906L317.79688 279.58124L318.75 279.58124L318.75 280.3781Q319.09375 279.90936 319.51562 279.675Q319.95312 279.4406 320.5625 279.4406Q321.35938 279.4406 321.96875 279.84686Q322.57812 280.2531 322.875 281.0031Q323.1875 281.7531 323.1875 282.64374Q323.1875 283.59686 322.84375 284.3625Q322.51562 285.1281 321.85938 285.53436Q321.20312 285.9406 320.48438 285.9406Q319.95312 285.9406 319.53125 285.72186Q319.10938 285.4875 318.84375 285.15936L318.84375 288.1906L317.79688 288.1906ZM318.75 282.72186Q318.75 283.925 319.23438 284.5031Q319.71875 285.0656 320.40625 285.0656Q321.10938 285.0656 321.60938 284.47186Q322.10938 283.8781 322.10938 282.6281Q322.10938 281.4406 321.625 280.8625Q321.14062 280.26874 320.45312 280.26874Q319.78125 280.26874 319.26562 280.89374Q318.75 281.51874 318.75 282.72186ZM329.04688 283.8L330.14062 283.925Q329.89062 284.8781 329.1875 285.40936Q328.48438 285.9406 327.40625 285.9406Q326.04688 285.9406 325.23438 285.09686Q324.4375 284.2531 324.4375 282.7375Q324.4375 281.175 325.25 280.3156Q326.0625 279.4406 327.34375 279.4406Q328.59375 279.4406 329.375 280.28436Q330.17188 281.1281 330.17188 282.675Q330.17188 282.76874 330.17188 282.95624L325.53125 282.95624Q325.59375 283.9875 326.10938 284.53436Q326.625 285.0656 327.40625 285.0656Q327.98438 285.0656 328.39062 284.76874Q328.8125 284.45624 329.04688 283.8ZM325.59375 282.09686L329.0625 282.09686Q329.0 281.3 328.67188 280.90936Q328.15625 280.3 327.35938 280.3Q326.625 280.3 326.125 280.78436Q325.64062 281.26874 325.59375 282.09686Z" fill-rule="nonzero"/><path fill="#000000" d="M26.199987 177.7427L17.606237 177.7427L17.606237 176.02396L23.684362 173.9927Q24.543737 173.71146 24.965612 173.58646Q24.496862 173.44583 23.590612 173.13333L17.606237 171.07083L17.606237 169.53958L26.199987 169.53958L26.199987 170.63333L19.012487 170.63333L26.199987 173.13333L26.199987 174.16458L18.887487 176.64896L26.199987 176.64896L26.199987 177.7427ZM26.199987 168.75833L17.606237 168.75833L17.606237 165.52396Q17.606237 164.53958 17.871862 163.94583Q18.137487 163.35208 18.684362 163.02396Q19.215612 162.6802 19.809362 162.6802Q20.356237 162.6802 20.840612 162.97708Q21.324987 163.27396 21.621862 163.88333Q21.856237 163.10208 22.418737 162.69583Q22.965612 162.27396 23.715612 162.27396Q24.309362 162.27396 24.840612 162.52396Q25.356237 162.77396 25.637487 163.14896Q25.918737 163.52396 26.059362 164.10208Q26.199987 164.66458 26.199987 165.47708L26.199987 168.75833ZM21.215612 167.6177L21.215612 165.75833Q21.215612 165.00833 21.121862 164.6802Q20.996862 164.2427 20.699987 164.02396Q20.387487 163.8052 19.934362 163.8052Q19.512487 163.8052 19.184362 164.00833Q18.856237 164.21146 18.746862 164.60208Q18.621862 164.97708 18.621862 165.89896L18.621862 167.6177L21.215612 167.6177ZM25.184362 167.6177L25.184362 165.47708Q25.184362 164.9302 25.137487 164.71146Q25.074987 164.3052 24.918737 164.0552Q24.746862 163.78958 24.434362 163.6177Q24.121862 163.44583 23.715612 163.44583Q23.231237 163.44583 22.871862 163.69583Q22.512487 163.9302 22.371862 164.3677Q22.231237 164.8052 22.231237 165.63333L22.231237 167.6177L25.184362 167.6177ZM26.340612 161.63333L17.465612 159.14896L17.465612 158.3052L26.340612 160.78958L26.340612 161.63333ZM24.340612 158.25833L24.184362 157.22708Q24.809362 157.13333 25.137487 156.7427Q25.465612 156.33646 25.465612 155.60208Q25.465612 154.88333 25.184362 154.53958Q24.887487 154.1802 24.481237 154.1802Q24.121862 154.1802 23.918737 154.4927Q23.778112 154.71146 23.559362 155.57083Q23.262487 156.72708 23.059362 157.1802Q22.840612 157.6177 22.465612 157.85208Q22.090612 158.08646 21.621862 158.08646Q21.215612 158.08646 20.856237 157.89896Q20.496862 157.71146 20.262487 157.38333Q20.090612 157.13333 19.965612 156.71146Q19.840612 156.28958 19.840612 155.78958Q19.840612 155.07083 20.059362 154.52396Q20.262487 153.96146 20.621862 153.69583Q20.981237 153.4302 21.574987 153.33646L21.715612 154.3677Q21.246862 154.4302 20.981237 154.77396Q20.699987 155.10208 20.699987 155.72708Q20.699987 156.44583 20.949987 156.75833Q21.184362 157.07083 21.512487 157.07083Q21.715612 157.07083 21.871862 156.94583Q22.043737 156.8052 22.153112 156.53958Q22.215612 156.38333 22.418737 155.60208Q22.731237 154.47708 22.918737 154.03958Q23.106237 153.60208 23.465612 153.35208Q23.824987 153.10208 24.371862 153.10208Q24.903112 153.10208 25.371862 153.41458Q25.824987 153.71146 26.090612 154.28958Q26.340612 154.8677 26.340612 155.60208Q26.340612 156.82083 25.840612 157.46146Q25.324987 158.08646 24.340612 158.25833Z" fill-rule="nonzero"/><path fill="#000000" d="M68.7 236.56563Q68.7 235.03438 69.0125 234.1125Q69.325 233.175 69.93437 232.675Q70.55937 232.175 71.49687 232.175Q72.18437 232.175 72.7 232.45625Q73.23125 232.7375 73.575 233.26875Q73.91875 233.78438 74.10625 234.53438Q74.29375 235.28438 74.29375 236.56563Q74.29375 238.08125 73.98125 239.00313Q73.68437 239.925 73.05937 240.44063Q72.45 240.94063 71.49687 240.94063Q70.2625 240.94063 69.54375 240.05Q68.7 238.9875 68.7 236.56563ZM69.77812 236.56563Q69.77812 238.675 70.27812 239.37813Q70.77812 240.08125 71.49687 240.08125Q72.23125 240.08125 72.71562 239.37813Q73.21562 238.675 73.21562 236.56563Q73.21562 234.44063 72.71562 233.75313Q72.23125 233.05 71.48125 233.05Q70.7625 233.05 70.325 233.65938Q69.77812 234.44063 69.77812 236.56563Z" fill-rule="nonzero"/><path fill="#000000" d="M53.246876 187.67326L53.246876 188.68889L47.559376 188.68889Q47.559376 188.31389 47.684376 187.95451Q47.903126 187.37639 48.371876 186.81389Q48.85625 186.25139 49.7625 185.51701Q51.16875 184.36076 51.653126 183.68889Q52.153126 183.01701 52.153126 182.42326Q52.153126 181.79826 51.7 181.37639Q51.246876 180.93889 50.528126 180.93889Q49.7625 180.93889 49.309376 181.39201Q48.85625 181.84514 48.840626 182.65764L47.7625 182.54826Q47.871876 181.32951 48.590626 180.70451Q49.325 180.06389 50.559376 180.06389Q51.79375 180.06389 52.5125 180.75139Q53.23125 181.43889 53.23125 182.45451Q53.23125 182.97014 53.0125 183.47014Q52.809376 183.95451 52.309376 184.51701Q51.825 185.06389 50.7 186.01701Q49.746876 186.81389 49.465626 187.11076Q49.2 187.39201 49.028126 187.67326L53.246876 187.67326ZM54.7 184.45451Q54.7 182.92326 55.0125 182.00139Q55.325 181.06389 55.934376 180.56389Q56.559376 180.06389 57.496876 180.06389Q58.184376 180.06389 58.7 180.34514Q59.23125 180.62639 59.575 181.15764Q59.91875 181.67326 60.10625 182.42326Q60.29375 183.17326 60.29375 184.45451Q60.29375 185.97014 59.98125 186.89201Q59.684376 187.81389 59.059376 188.32951Q58.45 188.82951 57.496876 188.82951Q56.2625 188.82951 55.54375 187.93889Q54.7 186.87639 54.7 184.45451ZM55.778126 184.45451Q55.778126 186.56389 56.278126 187.26701Q56.778126 187.97014 57.496876 187.97014Q58.23125 187.97014 58.715626 187.26701Q59.215626 186.56389 59.215626 184.45451Q59.215626 182.32951 58.715626 181.64201Q58.23125 180.93889 57.48125 180.93889Q56.7625 180.93889 56.325 181.54826Q55.778126 182.32951 55.778126 184.45451ZM61.7 184.45451Q61.7 182.92326 62.0125 182.00139Q62.325 181.06389 62.934376 180.56389Q63.559376 180.06389 64.49687 180.06389Q65.18437 180.06389 65.7 180.34514Q66.23125 180.62639 66.575 181.15764Q66.91875 181.67326 67.10625 182.42326Q67.29375 183.17326 67.29375 184.45451Q67.29375 185.97014 66.98125 186.89201Q66.68437 187.81389 66.05937 188.32951Q65.45 188.82951 64.49687 188.82951Q63.2625 188.82951 62.54375 187.93889Q61.7 186.87639 61.7 184.45451ZM62.778126 184.45451Q62.778126 186.56389 63.278126 187.26701Q63.778126 187.97014 64.49687 187.97014Q65.23125 187.97014 65.71562 187.26701Q66.21562 186.56389 66.21562 184.45451Q66.21562 182.32951 65.71562 181.64201Q65.23125 180.93889 64.48125 180.93889Q63.7625 180.93889 63.325 181.54826Q62.778126 182.32951 62.778126 184.45451ZM68.7 184.45451Q68.7 182.92326 69.0125 182.00139Q69.325 181.06389 69.93437 180.56389Q70.55937 180.06389 71.49687 180.06389Q72.18437 180.06389 72.7 180.34514Q73.23125 180.62639 73.575 181.15764Q73.91875 181.67326 74.10625 182.42326Q74.29375 183.17326 74.29375 184.45451Q74.29375 185.97014 73.98125 186.89201Q73.68437 187.81389 73.05937 188.32951Q72.45 188.82951 71.49687 188.82951Q70.2625 188.82951 69.54375 187.93889Q68.7 186.87639 68.7 184.45451ZM69.77812 184.45451Q69.77812 186.56389 70.27812 187.26701Q70.77812 187.97014 71.49687 187.97014Q72.23125 187.97014 72.71562 187.26701Q73.21562 186.56389 73.21562 184.45451Q73.21562 182.32951 72.71562 181.64201Q72.23125 180.93889 71.48125 180.93889Q70.7625 180.93889 70.325 181.54826Q69.77812 182.32951 69.77812 184.45451Z" fill-rule="nonzero"/><path fill="#000000" d="M51.075 136.57777L51.075 134.51527L47.35625 134.51527L47.35625 133.54652L51.278126 127.984024L52.1375 127.984024L52.1375 133.54652L53.29375 133.54652L53.29375 134.51527L52.1375 134.51527L52.1375 136.57777L51.075 136.57777ZM51.075 133.54652L51.075 129.68715L48.3875 133.54652L51.075 133.54652ZM54.7 132.3434Q54.7 130.81215 55.0125 129.89027Q55.325 128.95277 55.934376 128.45277Q56.559376 127.952774 57.496876 127.952774Q58.184376 127.952774 58.7 128.23402Q59.23125 128.51527 59.575 129.04652Q59.91875 129.56215 60.10625 130.31215Q60.29375 131.06215 60.29375 132.3434Q60.29375 133.85902 59.98125 134.7809Q59.684376 135.70277 59.059376 136.2184Q58.45 136.7184 57.496876 136.7184Q56.2625 136.7184 55.54375 135.82777Q54.7 134.76527 54.7 132.3434ZM55.778126 132.3434Q55.778126 134.45277 56.278126 135.1559Q56.778126 135.85902 57.496876 135.85902Q58.23125 135.85902 58.715626 135.1559Q59.215626 134.45277 59.215626 132.3434Q59.215626 130.2184 58.715626 129.5309Q58.23125 128.82777 57.48125 128.82777Q56.7625 128.82777 56.325 129.43715Q55.778126 130.2184 55.778126 132.3434ZM61.7 132.3434Q61.7 130.81215 62.0125 129.89027Q62.325 128.95277 62.934376 128.45277Q63.559376 127.952774 64.49687 127.952774Q65.18437 127.952774 65.7 128.23402Q66.23125 128.51527 66.575 129.04652Q66.91875 129.56215 67.10625 130.31215Q67.29375 131.06215 67.29375 132.3434Q67.29375 133.85902 66.98125 134.7809Q66.68437 135.70277 66.05937 136.2184Q65.45 136.7184 64.49687 136.7184Q63.2625 136.7184 62.54375 135.82777Q61.7 134.76527 61.7 132.3434ZM62.778126 132.3434Q62.778126 134.45277 63.278126 135.1559Q63.778126 135.85902 64.49687 135.85902Q65.23125 135.85902 65.71562 135.1559Q66.21562 134.45277 66.21562 132.3434Q66.21562 130.2184 65.71562 129.5309Q65.23125 128.82777 64.48125 128.82777Q63.7625 128.82777 63.325 129.43715Q62.778126 130.2184 62.778126 132.3434ZM68.7 132.3434Q68.7 130.81215 69.0125 129.89027Q69.325 128.95277 69.93437 128.45277Q70.55937 127.952774 71.49687 127.952774Q72.18437 127.952774 72.7 128.23402Q73.23125 128.51527 73.575 129.04652Q73.91875 129.56215 74.10625 130.31215Q74.29375 131.06215 74.29375 132.3434Q74.29375 133.85902 73.98125 134.7809Q73.68437 135.70277 73.05937 136.2184Q72.45 136.7184 71.49687 136.7184Q70.2625 136.7184 69.54375 135.82777Q68.7 134.76527 68.7 132.3434ZM69.77812 132.3434Q69.77812 134.45277 70.27812 135.1559Q70.77812 135.85902 71.49687 135.85902Q72.23125 135.85902 72.71562 135.1559Q73.21562 134.45277 73.21562 132.3434Q73.21562 130.2184 72.71562 129.5309Q72.23125 128.82777 71.48125 128.82777Q70.7625 128.82777 70.325 129.43715Q69.77812 130.2184 69.77812 132.3434Z" fill-rule="nonzero"/><path fill="#000000" d="M53.16875 77.98229L52.121876 78.06042Q51.98125 77.43542 51.73125 77.15417Q51.29375 76.70104 50.66875 76.70104Q50.16875 76.70104 49.778126 76.98229Q49.29375 77.35729 48.996876 78.06042Q48.715626 78.74792 48.7 80.02917Q49.075 79.45104 49.621876 79.16979Q50.184376 78.88854 50.79375 78.88854Q51.840626 78.88854 52.575 79.66979Q53.325 80.45104 53.325 81.66979Q53.325 82.48229 52.965626 83.18542Q52.621876 83.87292 52.0125 84.24792Q51.403126 84.60729 50.6375 84.60729Q49.309376 84.60729 48.48125 83.63854Q47.653126 82.66979 47.653126 80.45104Q47.653126 77.95104 48.575 76.82604Q49.371876 75.84167 50.73125 75.84167Q51.746876 75.84167 52.3875 76.41979Q53.04375 76.98229 53.16875 77.98229ZM48.871876 81.68542Q48.871876 82.23229 49.090626 82.73229Q49.325 83.21667 49.73125 83.48229Q50.153126 83.74792 50.621876 83.74792Q51.278126 83.74792 51.7625 83.21667Q52.246876 82.66979 52.246876 81.74792Q52.246876 80.85729 51.7625 80.34167Q51.29375 79.82604 50.575 79.82604Q49.85625 79.82604 49.35625 80.34167Q48.871876 80.85729 48.871876 81.68542ZM54.7 80.23229Q54.7 78.70104 55.0125 77.77917Q55.325 76.84167 55.934376 76.34167Q56.559376 75.84167 57.496876 75.84167Q58.184376 75.84167 58.7 76.12292Q59.23125 76.40417 59.575 76.93542Q59.91875 77.45104 60.10625 78.20104Q60.29375 78.95104 60.29375 80.23229Q60.29375 81.74792 59.98125 82.66979Q59.684376 83.59167 59.059376 84.10729Q58.45 84.60729 57.496876 84.60729Q56.2625 84.60729 55.54375 83.71667Q54.7 82.65417 54.7 80.23229ZM55.778126 80.23229Q55.778126 82.34167 56.278126 83.04479Q56.778126 83.74792 57.496876 83.74792Q58.23125 83.74792 58.715626 83.04479Q59.215626 82.34167 59.215626 80.23229Q59.215626 78.10729 58.715626 77.41979Q58.23125 76.71667 57.48125 76.71667Q56.7625 76.71667 56.325 77.32604Q55.778126 78.10729 55.778126 80.23229ZM61.7 80.23229Q61.7 78.70104 62.0125 77.77917Q62.325 76.84167 62.934376 76.34167Q63.559376 75.84167 64.49687 75.84167Q65.18437 75.84167 65.7 76.12292Q66.23125 76.40417 66.575 76.93542Q66.91875 77.45104 67.10625 78.20104Q67.29375 78.95104 67.29375 80.23229Q67.29375 81.74792 66.98125 82.66979Q66.68437 83.59167 66.05937 84.10729Q65.45 84.60729 64.49687 84.60729Q63.2625 84.60729 62.54375 83.71667Q61.7 82.65417 61.7 80.23229ZM62.778126 80.23229Q62.778126 82.34167 63.278126 83.04479Q63.778126 83.74792 64.49687 83.74792Q65.23125 83.74792 65.71562 83.04479Q66.21562 82.34167 66.21562 80.23229Q66.21562 78.10729 65.71562 77.41979Q65.23125 76.71667 64.48125 76.71667Q63.7625 76.71667 63.325 77.32604Q62.778126 78.10729 62.778126 80.23229ZM68.7 80.23229Q68.7 78.70104 69.0125 77.77917Q69.325 76.84167 69.93437 76.34167Q70.55937 75.84167 71.49687 75.84167Q72.18437 75.84167 72.7 76.12292Q73.23125 76.40417 73.575 76.93542Q73.91875 77.45104 74.10625 78.20104Q74.29375 78.95104 74.29375 80.23229Q74.29375 81.74792 73.98125 82.66979Q73.68437 83.59167 73.05937 84.10729Q72.45 84.60729 71.49687 84.60729Q70.2625 84.60729 69.54375 83.71667Q68.7 82.65417 68.7 80.23229ZM69.77812 80.23229Q69.77812 82.34167 70.27812 83.04479Q70.77812 83.74792 71.49687 83.74792Q72.23125 83.74792 72.71562 83.04479Q73.21562 82.34167 73.21562 80.23229Q73.21562 78.10729 72.71562 77.41979Q72.23125 76.71667 71.48125 76.71667Q70.7625 76.71667 70.325 77.32604Q69.77812 78.10729 69.77812 80.23229Z" fill-rule="nonzero"/><path fill="#000000" d="M132.69986 253.8L132.69986 247.58125L133.63736 247.58125L133.63736 248.45625Q134.32486 247.44063 135.62173 247.44063Q136.18423 247.44063 136.65298 247.64375Q137.13736 247.84688 137.37173 248.175Q137.60611 248.50313 137.69986 248.94063Q137.74673 249.2375 137.74673 249.97188L137.74673 253.8L136.69986 253.8L136.69986 250.01875Q136.69986 249.3625 136.57486 249.05Q136.44986 248.7375 136.13736 248.55Q135.82486 248.34688 135.40298 248.34688Q134.73111 248.34688 134.23111 248.78438Q133.74673 249.20625 133.74673 250.39375L133.74673 253.8L132.69986 253.8ZM139.94986 253.8L139.94986 248.39375L139.01236 248.39375L139.01236 247.58125L139.94986 247.58125L139.94986 246.90938Q139.94986 246.28438 140.05923 245.9875Q140.21548 245.56563 140.59048 245.31563Q140.98111 245.06563 141.66861 245.06563Q142.12173 245.06563 142.65298 245.175L142.49673 246.08125Q142.16861 246.03438 141.87173 246.03438Q141.38736 246.03438 141.18423 246.2375Q140.99673 246.44063 140.99673 247.00313L140.99673 247.58125L142.21548 247.58125L142.21548 248.39375L140.99673 248.39375L140.99673 253.8L139.94986 253.8ZM142.27798 251.94063L143.30923 251.78438Q143.40298 252.40938 143.79361 252.7375Q144.19986 253.06563 144.93423 253.06563Q145.65298 253.06563 145.99673 252.78438Q146.35611 252.4875 146.35611 252.08125Q146.35611 251.72188 146.04361 251.51875Q145.82486 251.37813 144.96548 251.15938Q143.80923 250.8625 143.35611 250.65938Q142.91861 250.44063 142.68423 250.06563Q142.44986 249.69063 142.44986 249.22188Q142.44986 248.81563 142.63736 248.45625Q142.82486 248.09688 143.15298 247.8625Q143.40298 247.69063 143.82486 247.56563Q144.24673 247.44063 144.74673 247.44063Q145.46548 247.44063 146.01236 247.65938Q146.57486 247.8625 146.84048 248.22188Q147.10611 248.58125 147.19986 249.175L146.16861 249.31563Q146.10611 248.84688 145.76236 248.58125Q145.43423 248.3 144.80923 248.3Q144.09048 248.3 143.77798 248.55Q143.46548 248.78438 143.46548 249.1125Q143.46548 249.31563 143.59048 249.47188Q143.73111 249.64375 143.99673 249.75313Q144.15298 249.81563 144.93423 250.01875Q146.05923 250.33125 146.49673 250.51875Q146.93423 250.70625 147.18423 251.06563Q147.43423 251.425 147.43423 251.97188Q147.43423 252.50313 147.12173 252.97188Q146.82486 253.425 146.24673 253.69063Q145.66861 253.94063 144.93423 253.94063Q143.71548 253.94063 143.07486 253.44063Q142.44986 252.925 142.27798 251.94063ZM151.41861 253.8L149.05923 247.58125L150.16861 247.58125L151.51236 251.3Q151.71548 251.90938 151.90298 252.55Q152.04361 252.06563 152.29361 251.37813L153.68423 247.58125L154.76236 247.58125L152.40298 253.8L151.41861 253.8ZM157.77798 253.8L157.77798 251.7375L154.05923 251.7375L154.05923 250.76875L157.98111 245.20625L158.84048 245.20625L158.84048 250.76875L159.99673 250.76875L159.99673 251.7375L158.84048 251.7375L158.84048 253.8L157.77798 253.8ZM157.77798 250.76875L157.77798 246.90938L155.09048 250.76875L157.77798 250.76875ZM164.69986 253.8L164.69986 245.20625L165.74673 245.20625L165.74673 248.28438Q166.48111 247.44063 167.60611 247.44063Q168.30923 247.44063 168.80923 247.72188Q169.32486 247.9875 169.54361 248.47188Q169.76236 248.94063 169.76236 249.8625L169.76236 253.8L168.71548 253.8L168.71548 249.8625Q168.71548 249.06563 168.37173 248.70625Q168.02798 248.34688 167.40298 248.34688Q166.93423 248.34688 166.51236 248.59688Q166.10611 248.83125 165.91861 249.25313Q165.74673 249.65938 165.74673 250.39375L165.74673 253.8L164.69986 253.8ZM171.30923 250.69063Q171.30923 248.95625 172.26236 248.12813Q173.05923 247.44063 174.21548 247.44063Q175.49673 247.44063 176.30923 248.28438Q177.13736 249.1125 177.13736 250.59688Q177.13736 251.8 176.77798 252.4875Q176.41861 253.175 175.71548 253.56563Q175.02798 253.94063 174.21548 253.94063Q172.91861 253.94063 172.10611 253.1125Q171.30923 252.26875 171.30923 250.69063ZM172.38736 250.69063Q172.38736 251.87813 172.90298 252.47188Q173.43423 253.06563 174.21548 253.06563Q175.01236 253.06563 175.52798 252.47188Q176.04361 251.87813 176.04361 250.65938Q176.04361 249.50313 175.51236 248.90938Q174.99673 248.31563 174.21548 248.31563Q173.43423 248.31563 172.90298 248.90938Q172.38736 249.4875 172.38736 250.69063ZM178.27798 251.94063L179.30923 251.78438Q179.40298 252.40938 179.79361 252.7375Q180.19986 253.06563 180.93423 253.06563Q181.65298 253.06563 181.99673 252.78438Q182.35611 252.4875 182.35611 252.08125Q182.35611 251.72188 182.04361 251.51875Q181.82486 251.37813 180.96548 251.15938Q179.80923 250.8625 179.35611 250.65938Q178.91861 250.44063 178.68423 250.06563Q178.44986 249.69063 178.44986 249.22188Q178.44986 248.81563 178.63736 248.45625Q178.82486 248.09688 179.15298 247.8625Q179.40298 247.69063 179.82486 247.56563Q180.24673 247.44063 180.74673 247.44063Q181.46548 247.44063 182.01236 247.65938Q182.57486 247.8625 182.84048 248.22188Q183.10611 248.58125 183.19986 249.175L182.16861 249.31563Q182.10611 248.84688 181.76236 248.58125Q181.43423 248.3 180.80923 248.3Q180.09048 248.3 179.77798 248.55Q179.46548 248.78438 179.46548 249.1125Q179.46548 249.31563 179.59048 249.47188Q179.73111 249.64375 179.99673 249.75313Q180.15298 249.81563 180.93423 250.01875Q182.05923 250.33125 182.49673 250.51875Q182.93423 250.70625 183.18423 251.06563Q183.43423 251.425 183.43423 251.97188Q183.43423 252.50313 183.12173 252.97188Q182.82486 253.425 182.24673 253.69063Q181.66861 253.94063 180.93423 253.94063Q179.71548 253.94063 179.07486 253.44063Q178.44986 252.925 178.27798 251.94063ZM187.99673 252.8625L188.15298 253.78438Q187.69986 253.87813 187.35611 253.87813Q186.77798 253.87813 186.46548 253.70625Q186.15298 253.51875 186.01236 253.22188Q185.88736 252.925 185.88736 251.97188L185.88736 248.39375L185.12173 248.39375L185.12173 247.58125L185.88736 247.58125L185.88736 246.03438L186.93423 245.40938L186.93423 247.58125L187.99673 247.58125L187.99673 248.39375L186.93423 248.39375L186.93423 252.03438Q186.93423 252.4875 186.98111 252.6125Q187.04361 252.7375 187.16861 252.81563Q187.29361 252.89375 187.52798 252.89375Q187.71548 252.89375 187.99673 252.8625Z" fill-rule="nonzero"/><path fill="#000000" d="M249.79688 253.8L249.79688 247.58125L250.73438 247.58125L250.73438 248.45625Q251.42188 247.44063 252.71875 247.44063Q253.28125 247.44063 253.75 247.64375Q254.23438 247.84688 254.46875 248.175Q254.70312 248.50313 254.79688 248.94063Q254.84375 249.2375 254.84375 249.97188L254.84375 253.8L253.79688 253.8L253.79688 250.01875Q253.79688 249.3625 253.67188 249.05Q253.54688 248.7375 253.23438 248.55Q252.92188 248.34688 252.5 248.34688Q251.82812 248.34688 251.32812 248.78438Q250.84375 249.20625 250.84375 250.39375L250.84375 253.8L249.79688 253.8ZM257.04688 253.8L257.04688 248.39375L256.10938 248.39375L256.10938 247.58125L257.04688 247.58125L257.04688 246.90938Q257.04688 246.28438 257.15625 245.9875Q257.3125 245.56563 257.6875 245.31563Q258.07812 245.06563 258.76562 245.06563Q259.21875 245.06563 259.75 245.175L259.59375 246.08125Q259.26562 246.03438 258.96875 246.03438Q258.48438 246.03438 258.28125 246.2375Q258.09375 246.44063 258.09375 247.00313L258.09375 247.58125L259.3125 247.58125L259.3125 248.39375L258.09375 248.39375L258.09375 253.8L257.04688 253.8ZM259.375 251.94063L260.40625 251.78438Q260.5 252.40938 260.89062 252.7375Q261.29688 253.06563 262.03125 253.06563Q262.75 253.06563 263.09375 252.78438Q263.45312 252.4875 263.45312 252.08125Q263.45312 251.72188 263.14062 251.51875Q262.92188 251.37813 262.0625 251.15938Q260.90625 250.8625 260.45312 250.65938Q260.01562 250.44063 259.78125 250.06563Q259.54688 249.69063 259.54688 249.22188Q259.54688 248.81563 259.73438 248.45625Q259.92188 248.09688 260.25 247.8625Q260.5 247.69063 260.92188 247.56563Q261.34375 247.44063 261.84375 247.44063Q262.5625 247.44063 263.10938 247.65938Q263.67188 247.8625 263.9375 248.22188Q264.20312 248.58125 264.29688 249.175L263.26562 249.31563Q263.20312 248.84688 262.85938 248.58125Q262.53125 248.3 261.90625 248.3Q261.1875 248.3 260.875 248.55Q260.5625 248.78438 260.5625 249.1125Q260.5625 249.31563 260.6875 249.47188Q260.82812 249.64375 261.09375 249.75313Q261.25 249.81563 262.03125 250.01875Q263.15625 250.33125 263.59375 250.51875Q264.03125 250.70625 264.28125 251.06563Q264.53125 251.425 264.53125 251.97188Q264.53125 252.50313 264.21875 252.97188Q263.92188 253.425 263.34375 253.69063Q262.76562 253.94063 262.03125 253.94063Q260.8125 253.94063 260.17188 253.44063Q259.54688 252.925 259.375 251.94063ZM268.51562 253.8L266.15625 247.58125L267.26562 247.58125L268.60938 251.3Q268.8125 251.90938 269.0 252.55Q269.14062 252.06563 269.39062 251.37813L270.78125 247.58125L271.85938 247.58125L269.5 253.8L268.51562 253.8ZM274.875 253.8L274.875 251.7375L271.15625 251.7375L271.15625 250.76875L275.07812 245.20625L275.9375 245.20625L275.9375 250.76875L277.09375 250.76875L277.09375 251.7375L275.9375 251.7375L275.9375 253.8L274.875 253.8ZM274.875 250.76875L274.875 246.90938L272.1875 250.76875L274.875 250.76875ZM285.46875 253.8L284.42188 253.8L284.42188 247.08125Q284.03125 247.44063 283.40625 247.81563Q282.79688 248.175 282.3125 248.34688L282.3125 247.33125Q283.1875 246.90938 283.84375 246.33125Q284.51562 245.7375 284.79688 245.175L285.46875 245.175L285.46875 253.8ZM290.51562 253.8L288.15625 247.58125L289.26562 247.58125L290.60938 251.3Q290.8125 251.90938 291.0 252.55Q291.14062 252.06563 291.39062 251.37813L292.78125 247.58125L293.85938 247.58125L291.5 253.8L290.51562 253.8ZM293.79688 253.8L293.79688 247.58125L294.73438 247.58125L294.73438 248.45625Q295.03125 247.9875 295.51562 247.72188Q296.0 247.44063 296.625 247.44063Q297.3125 247.44063 297.75 247.72188Q298.20312 248.00313 298.375 248.51875Q299.125 247.44063 300.29688 247.44063Q301.23438 247.44063 301.71875 247.95625Q302.21875 248.45625 302.21875 249.53438L302.21875 253.8L301.17188 253.8L301.17188 249.87813Q301.17188 249.25313 301.0625 248.97188Q300.96875 248.69063 300.70312 248.51875Q300.4375 248.34688 300.0625 248.34688Q299.40625 248.34688 298.96875 248.78438Q298.54688 249.22188 298.54688 250.19063L298.54688 253.8L297.48438 253.8L297.48438 249.75313Q297.48438 249.05 297.21875 248.70625Q296.96875 248.34688 296.39062 248.34688Q295.9375 248.34688 295.5625 248.58125Q295.1875 248.81563 295.01562 249.26875Q294.84375 249.72188 294.84375 250.56563L294.84375 253.8L293.79688 253.8Z" fill-rule="nonzero"/><path fill="#000000" d="M366.3939 253.8L366.3939 247.58125L367.3314 247.58125L367.3314 248.45625Q368.0189 247.44063 369.31577 247.44063Q369.87827 247.44063 370.34702 247.64375Q370.8314 247.84688 371.06577 248.175Q371.30014 248.50313 371.3939 248.94063Q371.44077 249.2375 371.44077 249.97188L371.44077 253.8L370.3939 253.8L370.3939 250.01875Q370.3939 249.3625 370.2689 249.05Q370.1439 248.7375 369.8314 248.55Q369.5189 248.34688 369.09702 248.34688Q368.42514 248.34688 367.92514 248.78438Q367.44077 249.20625 367.44077 250.39375L367.44077 253.8L366.3939 253.8ZM373.6439 253.8L373.6439 248.39375L372.7064 248.39375L372.7064 247.58125L373.6439 247.58125L373.6439 246.90938Q373.6439 246.28438 373.75327 245.9875Q373.90952 245.56563 374.28452 245.31563Q374.67514 245.06563 375.36264 245.06563Q375.81577 245.06563 376.34702 245.175L376.19077 246.08125Q375.86264 246.03438 375.56577 246.03438Q375.0814 246.03438 374.87827 246.2375Q374.69077 246.44063 374.69077 247.00313L374.69077 247.58125L375.90952 247.58125L375.90952 248.39375L374.69077 248.39375L374.69077 253.8L373.6439 253.8ZM375.97202 251.94063L377.00327 251.78438Q377.09702 252.40938 377.48764 252.7375Q377.8939 253.06563 378.62827 253.06563Q379.34702 253.06563 379.69077 252.78438Q380.05014 252.4875 380.05014 252.08125Q380.05014 251.72188 379.73764 251.51875Q379.5189 251.37813 378.65952 251.15938Q377.50327 250.8625 377.05014 250.65938Q376.61264 250.44063 376.37827 250.06563Q376.1439 249.69063 376.1439 249.22188Q376.1439 248.81563 376.3314 248.45625Q376.5189 248.09688 376.84702 247.8625Q377.09702 247.69063 377.5189 247.56563Q377.94077 247.44063 378.44077 247.44063Q379.15952 247.44063 379.7064 247.65938Q380.2689 247.8625 380.53452 248.22188Q380.80014 248.58125 380.8939 249.175L379.86264 249.31563Q379.80014 248.84688 379.4564 248.58125Q379.12827 248.3 378.50327 248.3Q377.78452 248.3 377.47202 248.55Q377.15952 248.78438 377.15952 249.1125Q377.15952 249.31563 377.28452 249.47188Q377.42514 249.64375 377.69077 249.75313Q377.84702 249.81563 378.62827 250.01875Q379.75327 250.33125 380.19077 250.51875Q380.62827 250.70625 380.87827 251.06563Q381.12827 251.425 381.12827 251.97188Q381.12827 252.50313 380.81577 252.97188Q380.5189 253.425 379.94077 253.69063Q379.36264 253.94063 378.62827 253.94063Q377.40952 253.94063 376.7689 253.44063Q376.1439 252.925 375.97202 251.94063ZM385.11264 253.8L382.75327 247.58125L383.86264 247.58125L385.2064 251.3Q385.40952 251.90938 385.59702 252.55Q385.73764 252.06563 385.98764 251.37813L387.37827 247.58125L388.4564 247.58125L386.09702 253.8L385.11264 253.8ZM391.47202 253.8L391.47202 251.7375L387.75327 251.7375L387.75327 250.76875L391.67514 245.20625L392.53452 245.20625L392.53452 250.76875L393.69077 250.76875L393.69077 251.7375L392.53452 251.7375L392.53452 253.8L391.47202 253.8ZM391.47202 250.76875L391.47202 246.90938L388.78452 250.76875L391.47202 250.76875ZM403.56577 247.31563L402.5189 247.39375Q402.37827 246.76875 402.12827 246.4875Q401.69077 246.03438 401.06577 246.03438Q400.56577 246.03438 400.17514 246.31563Q399.69077 246.69063 399.3939 247.39375Q399.11264 248.08125 399.09702 249.3625Q399.47202 248.78438 400.0189 248.50313Q400.5814 248.22188 401.19077 248.22188Q402.23764 248.22188 402.97202 249.00313Q403.72202 249.78438 403.72202 251.00313Q403.72202 251.81563 403.36264 252.51875Q403.0189 253.20625 402.40952 253.58125Q401.80014 253.94063 401.03452 253.94063Q399.7064 253.94063 398.87827 252.97188Q398.05014 252.00313 398.05014 249.78438Q398.05014 247.28438 398.97202 246.15938Q399.7689 245.175 401.12827 245.175Q402.1439 245.175 402.78452 245.75313Q403.44077 246.31563 403.56577 247.31563ZM399.2689 251.01875Q399.2689 251.56563 399.48764 252.06563Q399.72202 252.55 400.12827 252.81563Q400.55014 253.08125 401.0189 253.08125Q401.67514 253.08125 402.15952 252.55Q402.6439 252.00313 402.6439 251.08125Q402.6439 250.19063 402.15952 249.675Q401.69077 249.15938 400.97202 249.15938Q400.25327 249.15938 399.75327 249.675Q399.2689 250.19063 399.2689 251.01875ZM407.11264 253.8L404.75327 247.58125L405.86264 247.58125L407.2064 251.3Q407.40952 251.90938 407.59702 252.55Q407.73764 252.06563 407.98764 251.37813L409.37827 247.58125L410.4564 247.58125L408.09702 253.8L407.11264 253.8ZM410.3939 253.8L410.3939 247.58125L411.3314 247.58125L411.3314 248.45625Q411.62827 247.9875 412.11264 247.72188Q412.59702 247.44063 413.22202 247.44063Q413.90952 247.44063 414.34702 247.72188Q414.80014 248.00313 414.97202 248.51875Q415.72202 247.44063 416.8939 247.44063Q417.8314 247.44063 418.31577 247.95625Q418.81577 248.45625 418.81577 249.53438L418.81577 253.8L417.7689 253.8L417.7689 249.87813Q417.7689 249.25313 417.65952 248.97188Q417.56577 248.69063 417.30014 248.51875Q417.03452 248.34688 416.65952 248.34688Q416.00327 248.34688 415.56577 248.78438Q415.1439 249.22188 415.1439 250.19063L415.1439 253.8L414.0814 253.8L414.0814 249.75313Q414.0814 249.05 413.81577 248.70625Q413.56577 248.34688 412.98764 248.34688Q412.53452 248.34688 412.15952 248.58125Q411.78452 248.81563 411.61264 249.26875Q411.44077 249.72188 411.44077 250.56563L411.44077 253.8L410.3939 253.8Z" fill-rule="nonzero"/><path fill="#4285f4" d="M190.0 51.333332C190.0 50.781048 190.44771 50.333332 191.0 50.333332L201.0 50.333332C201.55229 50.333332 202.0 50.781048 202.0 51.333332L202.0 61.333332C202.0 61.885616 201.55229 62.333332 201.0 62.333332L191.0 62.333332C190.44771 62.333332 190.0 61.885616 190.0 61.333332Z" fill-rule="nonzero"/><path fill="#1a1a1a" d="M210.78125 60.333332L210.78125 54.114582L211.73438 54.114582L211.73438 55.052082Q212.09375 54.395832 212.39062 54.192707Q212.70312 53.973957 213.07812 53.973957Q213.60938 53.973957 214.15625 54.302082L213.79688 55.286457Q213.40625 55.052082 213.03125 55.052082Q212.67188 55.052082 212.39062 55.270832Q212.125 55.473957 212.01562 55.848957Q211.82812 56.411457 211.82812 57.067707L211.82812 60.333332L210.78125 60.333332ZM219.04688 58.333332L220.14062 58.458332Q219.89062 59.411457 219.1875 59.942707Q218.48438 60.473957 217.40625 60.473957Q216.04688 60.473957 215.23438 59.630207Q214.4375 58.786457 214.4375 57.270832Q214.4375 55.708332 215.25 54.848957Q216.0625 53.973957 217.34375 53.973957Q218.59375 53.973957 219.375 54.817707Q220.17188 55.661457 220.17188 57.208332Q220.17188 57.302082 220.17188 57.489582L215.53125 57.489582Q215.59375 58.520832 216.10938 59.067707Q216.625 59.598957 217.40625 59.598957Q217.98438 59.598957 218.39062 59.302082Q218.8125 58.989582 219.04688 58.333332ZM215.59375 56.630207L219.0625 56.630207Q219.0 55.833332 218.67188 55.442707Q218.15625 54.833332 217.35938 54.833332Q216.625 54.833332 216.125 55.317707Q215.64062 55.802082 215.59375 56.630207ZM225.85938 59.567707Q225.26562 60.067707 224.71875 60.270832Q224.1875 60.473957 223.5625 60.473957Q222.53125 60.473957 221.98438 59.973957Q221.4375 59.473957 221.4375 58.692707Q221.4375 58.239582 221.64062 57.864582Q221.84375 57.473957 222.1875 57.255207Q222.53125 57.020832 222.95312 56.911457Q223.25 56.817707 223.89062 56.739582Q225.15625 56.598957 225.76562 56.380207Q225.76562 56.161457 225.76562 56.114582Q225.76562 55.458332 225.46875 55.192707Q225.0625 54.848957 224.26562 54.848957Q223.53125 54.848957 223.17188 55.114582Q222.8125 55.364582 222.64062 56.020832L221.60938 55.880207Q221.75 55.223957 222.07812 54.817707Q222.40625 54.411457 223.01562 54.192707Q223.625 53.973957 224.42188 53.973957Q225.21875 53.973957 225.71875 54.161457Q226.21875 54.348957 226.45312 54.630207Q226.6875 54.911457 226.78125 55.348957Q226.82812 55.614582 226.82812 56.317707L226.82812 57.723957Q226.82812 59.192707 226.89062 59.583332Q226.96875 59.973957 227.17188 60.333332L226.0625 60.333332Q225.90625 60.005207 225.85938 59.567707ZM225.76562 57.208332Q225.1875 57.442707 224.04688 57.614582Q223.39062 57.708332 223.125 57.833332Q222.85938 57.942707 222.70312 58.161457Q222.5625 58.380207 222.5625 58.661457Q222.5625 59.083332 222.875 59.364582Q223.20312 59.645832 223.8125 59.645832Q224.42188 59.645832 224.89062 59.380207Q225.375 59.114582 225.59375 58.645832Q225.76562 58.286457 225.76562 57.598957L225.76562 57.208332ZM232.82812 60.333332L232.82812 59.552082Q232.23438 60.473957 231.09375 60.473957Q230.34375 60.473957 229.71875 60.067707Q229.09375 59.645832 228.75 58.911457Q228.40625 58.177082 228.40625 57.223957Q228.40625 56.302082 228.71875 55.536457Q229.03125 54.770832 229.65625 54.380207Q230.28125 53.973957 231.04688 53.973957Q231.60938 53.973957 232.04688 54.208332Q232.48438 54.442707 232.76562 54.817707L232.76562 51.739582L233.8125 51.739582L233.8125 60.333332L232.82812 60.333332ZM229.5 57.223957Q229.5 58.427082 230.0 59.020832Q230.5 59.598957 231.1875 59.598957Q231.875 59.598957 232.35938 59.036457Q232.84375 58.473957 232.84375 57.317707Q232.84375 56.036457 232.34375 55.442707Q231.85938 54.848957 231.14062 54.848957Q230.4375 54.848957 229.96875 55.427082Q229.5 55.989582 229.5 57.223957Z" fill-rule="nonzero"/><path fill="#ea4335" d="M251.0 51.333332C251.0 50.781048 251.44771 50.333332 252.0 50.333332L262.0 50.333332C262.55228 50.333332 263.0 50.781048 263.0 51.333332L263.0 61.333332C263.0 61.885616 262.55228 62.333332 262.0 62.333332L252.0 62.333332C251.44771 62.333332 251.0 61.885616 251.0 61.333332Z" fill-rule="nonzero"/><path fill="#1a1a1a" d="M272.9375 60.333332L271.03125 54.114582L272.125 54.114582L273.10938 57.708332L273.48438 59.036457Q273.51562 58.942707 273.8125 57.755207L274.79688 54.114582L275.875 54.114582L276.8125 57.723957L277.125 58.911457L277.48438 57.708332L278.54688 54.114582L279.57812 54.114582L277.625 60.333332L276.53125 60.333332L275.54688 56.598957L275.29688 55.552082L274.04688 60.333332L272.9375 60.333332ZM280.78125 60.333332L280.78125 54.114582L281.73438 54.114582L281.73438 55.052082Q282.09375 54.395832 282.39062 54.192707Q282.70312 53.973957 283.07812 53.973957Q283.60938 53.973957 284.15625 54.302082L283.79688 55.286457Q283.40625 55.052082 283.03125 55.052082Q282.67188 55.052082 282.39062 55.270832Q282.125 55.473957 282.01562 55.848957Q281.82812 56.411457 281.82812 57.067707L281.82812 60.333332L280.78125 60.333332ZM284.79688 52.958332L284.79688 51.739582L285.85938 51.739582L285.85938 52.958332L284.79688 52.958332ZM284.79688 60.333332L284.79688 54.114582L285.85938 54.114582L285.85938 60.333332L284.79688 60.333332ZM290.09375 59.395832L290.25 60.317707Q289.79688 60.411457 289.45312 60.411457Q288.875 60.411457 288.5625 60.239582Q288.25 60.052082 288.10938 59.755207Q287.98438 59.458332 287.98438 58.505207L287.98438 54.927082L287.21875 54.927082L287.21875 54.114582L287.98438 54.114582L287.98438 52.567707L289.03125 51.942707L289.03125 54.114582L290.09375 54.114582L290.09375 54.927082L289.03125 54.927082L289.03125 58.567707Q289.03125 59.020832 289.07812 59.145832Q289.14062 59.270832 289.26562 59.348957Q289.39062 59.427082 289.625 59.427082Q289.8125 59.427082 290.09375 59.395832ZM295.04688 58.333332L296.14062 58.458332Q295.89062 59.411457 295.1875 59.942707Q294.48438 60.473957 293.40625 60.473957Q292.04688 60.473957 291.23438 59.630207Q290.4375 58.786457 290.4375 57.270832Q290.4375 55.708332 291.25 54.848957Q292.0625 53.973957 293.34375 53.973957Q294.59375 53.973957 295.375 54.817707Q296.17188 55.661457 296.17188 57.208332Q296.17188 57.302082 296.17188 57.489582L291.53125 57.489582Q291.59375 58.520832 292.10938 59.067707Q292.625 59.598957 293.40625 59.598957Q293.98438 59.598957 294.39062 59.302082Q294.8125 58.989582 295.04688 58.333332ZM291.59375 56.630207L295.0625 56.630207Q295.0 55.833332 294.67188 55.442707Q294.15625 54.833332 293.35938 54.833332Q292.625 54.833332 292.125 55.317707Q291.64062 55.802082 291.59375 56.630207Z" fill-rule="nonzero"/><path fill="#757575" d="M16.73125 34.2L16.73125 19.8875L18.66875 19.8875L26.184376 31.121876L26.184376 19.8875L27.996876 19.8875L27.996876 34.2L26.059376 34.2L18.54375 22.95L18.54375 34.2L16.73125 34.2ZM36.621876 30.85625L38.434376 31.090626Q38.0125 32.66875 36.840626 33.559376Q35.684376 34.434376 33.871876 34.434376Q31.60625 34.434376 30.2625 33.04375Q28.934376 31.6375 28.934376 29.10625Q28.934376 26.48125 30.278126 25.04375Q31.621876 23.590626 33.778126 23.590626Q35.85625 23.590626 37.16875 25.0125Q38.496876 26.41875 38.496876 28.996876Q38.496876 29.153126 38.48125 29.465626L30.746876 29.465626Q30.840626 31.16875 31.715626 32.075Q32.590626 32.98125 33.8875 32.98125Q34.85625 32.98125 35.528126 32.48125Q36.215626 31.965626 36.621876 30.85625ZM30.840626 28.0125L36.6375 28.0125Q36.528126 26.715626 35.98125 26.059376Q35.1375 25.04375 33.79375 25.04375Q32.590626 25.04375 31.7625 25.85625Q30.934376 26.653126 30.840626 28.0125ZM44.35625 32.621876L44.60625 34.184376Q43.871876 34.340626 43.278126 34.340626Q42.325 34.340626 41.79375 34.04375Q41.278126 33.73125 41.059376 33.246876Q40.840626 32.746876 40.840626 31.16875L40.840626 25.2L39.559376 25.2L39.559376 23.825L40.840626 23.825L40.840626 21.2625L42.590626 20.2L42.590626 23.825L44.35625 23.825L44.35625 25.2L42.590626 25.2L42.590626 31.2625Q42.590626 32.0125 42.684376 32.23125Q42.778126 32.434376 42.98125 32.575Q43.2 32.7 43.590626 32.7Q43.871876 32.7 44.35625 32.621876ZM45.16875 34.2L50.66875 19.8875L52.715626 19.8875L58.575 34.2L56.41875 34.2L54.746876 29.85625L48.7625 29.85625L47.184376 34.2L45.16875 34.2ZM49.309376 28.325L54.153126 28.325L52.66875 24.35625Q51.98125 22.54375 51.653126 21.3875Q51.371876 22.7625 50.871876 24.121876L49.309376 28.325ZM59.5125 38.16875L59.5125 23.825L61.121876 23.825L61.121876 25.16875Q61.684376 24.3875 62.3875 23.996876Q63.10625 23.590626 64.12187 23.590626Q65.45 23.590626 66.46562 24.278126Q67.48125 24.965626 67.99687 26.215626Q68.52812 27.45 68.52812 28.934376Q68.52812 30.528126 67.95 31.809376Q67.3875 33.075 66.29375 33.7625Q65.2 34.434376 63.996876 34.434376Q63.121876 34.434376 62.41875 34.059376Q61.73125 33.684376 61.278126 33.121876L61.278126 38.16875L59.5125 38.16875ZM61.10625 29.075Q61.10625 31.075 61.91875 32.028126Q62.73125 32.98125 63.8875 32.98125Q65.05937 32.98125 65.8875 31.996876Q66.73125 31.0125 66.73125 28.91875Q66.73125 26.95 65.90312 25.965626Q65.09062 24.965626 63.965626 24.965626Q62.840626 24.965626 61.965626 26.028126Q61.10625 27.075 61.10625 29.075ZM70.5125 38.16875L70.5125 23.825L72.12187 23.825L72.12187 25.16875Q72.68437 24.3875 73.3875 23.996876Q74.10625 23.590626 75.12187 23.590626Q76.45 23.590626 77.46562 24.278126Q78.48125 24.965626 78.99687 26.215626Q79.52812 27.45 79.52812 28.934376Q79.52812 30.528126 78.95 31.809376Q78.3875 33.075 77.29375 33.7625Q76.2 34.434376 74.99687 34.434376Q74.12187 34.434376 73.41875 34.059376Q72.73125 33.684376 72.27812 33.121876L72.27812 38.16875L70.5125 38.16875ZM72.10625 29.075Q72.10625 31.075 72.91875 32.028126Q73.73125 32.98125 74.8875 32.98125Q76.05937 32.98125 76.8875 31.996876Q77.73125 31.0125 77.73125 28.91875Q77.73125 26.95 76.90312 25.965626Q76.09062 24.965626 74.96562 24.965626Q73.84062 24.965626 72.96562 26.028126Q72.10625 27.075 72.10625 29.075ZM87.73125 34.2L87.73125 19.8875L89.66875 19.8875L97.18437 31.121876L97.18437 19.8875L98.99687 19.8875L98.99687 34.2L97.05937 34.2L89.54375 22.95L89.54375 34.2L87.73125 34.2ZM100.84062 34.2L100.84062 19.8875L110.49687 19.8875L110.49687 21.575L102.73125 21.575L102.73125 26.0125L109.45 26.0125L109.45 27.7L102.73125 27.7L102.73125 34.2L100.84062 34.2ZM112.10625 29.60625L113.8875 29.45Q114.0125 30.5125 114.46562 31.2Q114.93437 31.8875 115.90312 32.325Q116.8875 32.746876 118.12187 32.746876Q119.2 32.746876 120.02812 32.434376Q120.85625 32.10625 121.2625 31.54375Q121.66875 30.98125 121.66875 30.309376Q121.66875 29.6375 121.27812 29.1375Q120.8875 28.6375 119.99687 28.29375Q119.41875 28.059376 117.43437 27.590626Q115.46562 27.121876 114.68437 26.7Q113.65312 26.16875 113.15312 25.371876Q112.65312 24.575 112.65312 23.590626Q112.65312 22.496876 113.2625 21.559376Q113.87187 20.621876 115.05937 20.1375Q116.24687 19.6375 117.68437 19.6375Q119.27812 19.6375 120.49687 20.153126Q121.71562 20.66875 122.35625 21.66875Q123.0125 22.653126 123.05937 23.91875L121.24687 24.059376Q121.10625 22.7 120.2625 22.0125Q119.41875 21.309376 117.7625 21.309376Q116.04375 21.309376 115.24687 21.95Q114.46562 22.575 114.46562 23.45Q114.46562 24.23125 115.02812 24.73125Q115.575 25.23125 117.8875 25.746876Q120.2 26.2625 121.05937 26.653126Q122.30937 27.23125 122.90312 28.121876Q123.49687 28.996876 123.49687 30.153126Q123.49687 31.29375 122.84062 32.309376Q122.18437 33.325 120.95 33.8875Q119.73125 34.45 118.2 34.45Q116.2625 34.45 114.95 33.8875Q113.6375 33.309376 112.8875 32.16875Q112.1375 31.028126 112.10625 29.60625ZM128.40312 34.2L124.45 23.825L126.30937 23.825L128.54375 30.04375Q128.90312 31.04375 129.2 32.121876Q129.43437 31.309376 129.85625 30.153126L132.15312 23.825L133.96562 23.825L130.04375 34.2L128.40312 34.2ZM139.66875 34.2L139.66875 30.778126L133.45 30.778126L133.45 29.153126L139.98125 19.8875L141.41875 19.8875L141.41875 29.153126L143.35625 29.153126L143.35625 30.778126L141.41875 30.778126L141.41875 34.2L139.66875 34.2ZM139.66875 29.153126L139.66875 22.7L135.18437 29.153126L139.66875 29.153126ZM151.77812 34.2L151.77812 19.8875L158.12187 19.8875Q160.02812 19.8875 161.02812 20.278126Q162.02812 20.653126 162.62187 21.6375Q163.21562 22.60625 163.21562 23.79375Q163.21562 25.309376 162.23125 26.35625Q161.24687 27.403126 159.18437 27.684376Q159.93437 28.04375 160.325 28.403126Q161.15312 29.153126 161.90312 30.309376L164.3875 34.2L162.0125 34.2L160.10625 31.215626Q159.27812 29.934376 158.74687 29.246876Q158.21562 28.559376 157.77812 28.29375Q157.35625 28.0125 156.91875 27.903126Q156.59062 27.840626 155.87187 27.840626L153.66875 27.840626L153.66875 34.2L151.77812 34.2ZM153.66875 26.2L157.74687 26.2Q159.04375 26.2 159.7625 25.934376Q160.49687 25.66875 160.87187 25.075Q161.2625 24.48125 161.2625 23.79375Q161.2625 22.778126 160.52812 22.121876Q159.79375 21.465626 158.2 21.465626L153.66875 21.465626L153.66875 26.2ZM165.74687 34.2L165.74687 19.8875L170.66875 19.8875Q172.34062 19.8875 173.23125 20.090626Q174.45 20.371876 175.325 21.10625Q176.45 22.075 177.0125 23.559376Q177.575 25.04375 177.575 26.965626Q177.575 28.590626 177.2 29.85625Q176.825 31.10625 176.21562 31.934376Q175.62187 32.7625 174.91875 33.246876Q174.21562 33.715626 173.21562 33.965626Q172.21562 34.2 170.90312 34.2L165.74687 34.2ZM167.6375 32.5125L170.7 32.5125Q172.10625 32.5125 172.90312 32.246876Q173.71562 31.98125 174.2 31.496876Q174.87187 30.825 175.24687 29.7Q175.62187 28.559376 175.62187 26.934376Q175.62187 24.684376 174.8875 23.48125Q174.15312 22.278126 173.09062 21.871876Q172.34062 21.575 170.65312 21.575L167.6375 21.575L167.6375 32.5125ZM179.68437 34.2L179.68437 19.8875L182.54375 19.8875L185.91875 30.0125Q186.3875 31.434376 186.60625 32.1375Q186.85625 31.35625 187.37187 29.840626L190.79375 19.8875L193.34062 19.8875L193.34062 34.2L191.52812 34.2L191.52812 22.215626L187.35625 34.2L185.65312 34.2L181.5125 22.0125L181.5125 34.2L179.68437 34.2ZM195.16875 34.2L200.66875 19.8875L202.71562 19.8875L208.575 34.2L206.41875 34.2L204.74687 29.85625L198.7625 29.85625L197.18437 34.2L195.16875 34.2ZM199.30937 28.325L204.15312 28.325L202.66875 24.35625Q201.98125 22.54375 201.65312 21.3875Q201.37187 22.7625 200.87187 24.121876L199.30937 28.325ZM215.10625 29.60625L216.8875 29.45Q217.0125 30.5125 217.46562 31.2Q217.93437 31.8875 218.90312 32.325Q219.8875 32.746876 221.12187 32.746876Q222.2 32.746876 223.02812 32.434376Q223.85625 32.10625 224.2625 31.54375Q224.66875 30.98125 224.66875 30.309376Q224.66875 29.6375 224.27812 29.1375Q223.8875 28.6375 222.99687 28.29375Q222.41875 28.059376 220.43437 27.590626Q218.46562 27.121876 217.68437 26.7Q216.65312 26.16875 216.15312 25.371876Q215.65312 24.575 215.65312 23.590626Q215.65312 22.496876 216.2625 21.559376Q216.87187 20.621876 218.05937 20.1375Q219.24687 19.6375 220.68437 19.6375Q222.27812 19.6375 223.49687 20.153126Q224.71562 20.66875 225.35625 21.66875Q226.0125 22.653126 226.05937 23.91875L224.24687 24.059376Q224.10625 22.7 223.2625 22.0125Q222.41875 21.309376 220.7625 21.309376Q219.04375 21.309376 218.24687 21.95Q217.46562 22.575 217.46562 23.45Q217.46562 24.23125 218.02812 24.73125Q218.575 25.23125 220.8875 25.746876Q223.2 26.2625 224.05937 26.653126Q225.30937 27.23125 225.90312 28.121876Q226.49687 28.996876 226.49687 30.153126Q226.49687 31.29375 225.84062 32.309376Q225.18437 33.325 223.95 33.8875Q222.73125 34.45 221.2 34.45Q219.2625 34.45 217.95 33.8875Q216.6375 33.309376 215.8875 32.16875Q215.1375 31.028126 215.10625 29.60625ZM235.62187 30.85625L237.43437 31.090626Q237.0125 32.66875 235.84062 33.559376Q234.68437 34.434376 232.87187 34.434376Q230.60625 34.434376 229.2625 33.04375Q227.93437 31.6375 227.93437 29.10625Q227.93437 26.48125 229.27812 25.04375Q230.62187 23.590626 232.77812 23.590626Q234.85625 23.590626 236.16875 25.0125Q237.49687 26.41875 237.49687 28.996876Q237.49687 29.153126 237.48125 29.465626L229.74687 29.465626Q229.84062 31.16875 230.71562 32.075Q231.59062 32.98125 232.8875 32.98125Q233.85625 32.98125 234.52812 32.48125Q235.21562 31.965626 235.62187 30.85625ZM229.84062 28.0125L235.6375 28.0125Q235.52812 26.715626 234.98125 26.059376Q234.1375 25.04375 232.79375 25.04375Q231.59062 25.04375 230.7625 25.85625Q229.93437 26.653126 229.84062 28.0125ZM246.1375 38.16875L246.1375 33.090626Q245.71562 33.66875 244.98125 34.059376Q244.24687 34.434376 243.41875 34.434376Q241.575 34.434376 240.23125 32.965626Q238.90312 31.48125 238.90312 28.91875Q238.90312 27.35625 239.43437 26.121876Q239.98125 24.871876 241.0125 24.23125Q242.04375 23.590626 243.27812 23.590626Q245.2 23.590626 246.30937 25.215626L246.30937 23.825L247.8875 23.825L247.8875 38.16875L246.1375 38.16875ZM240.71562 28.98125Q240.71562 30.98125 241.54375 31.98125Q242.3875 32.98125 243.55937 32.98125Q244.68437 32.98125 245.49687 32.04375Q246.30937 31.090626 246.30937 29.1375Q246.30937 27.075 245.45 26.028126Q244.59062 24.98125 243.45 24.98125Q242.30937 24.98125 241.5125 25.95Q240.71562 26.91875 240.71562 28.98125ZM257.3094 34.2L257.3094 32.66875Q256.10626 34.434376 254.02812 34.434376Q253.10625 34.434376 252.30937 34.090626Q251.5125 33.73125 251.12187 33.2Q250.74687 32.66875 250.59062 31.8875Q250.48125 31.371876 250.48125 30.246876L250.48125 23.825L252.23125 23.825L252.23125 29.575Q252.23125 30.95 252.34062 31.434376Q252.5125 32.121876 253.04375 32.528126Q253.59062 32.91875 254.37187 32.91875Q255.16875 32.91875 255.85625 32.5125Q256.5594 32.10625 256.84064 31.41875Q257.1375 30.715626 257.1375 29.3875L257.1375 23.825L258.8875 23.825L258.8875 34.2L257.3094 34.2ZM267.6219 30.85625L269.4344 31.090626Q269.0125 32.66875 267.84064 33.559376Q266.6844 34.434376 264.8719 34.434376Q262.60626 34.434376 261.2625 33.04375Q259.9344 31.6375 259.9344 29.10625Q259.9344 26.48125 261.27814 25.04375Q262.6219 23.590626 264.77814 23.590626Q266.85626 23.590626 268.16876 25.0125Q269.4969 26.41875 269.4969 28.996876Q269.4969 29.153126 269.48126 29.465626L261.7469 29.465626Q261.84064 31.16875 262.71564 32.075Q263.59064 32.98125 264.8875 32.98125Q265.85626 32.98125 266.52814 32.48125Q267.21564 31.965626 267.6219 30.85625ZM261.84064 28.0125L267.6375 28.0125Q267.52814 26.715626 266.98126 26.059376Q266.1375 25.04375 264.79376 25.04375Q263.59064 25.04375 262.7625 25.85625Q261.9344 26.653126 261.84064 28.0125ZM271.5125 34.2L271.5125 23.825L273.10626 23.825L273.10626 25.309376Q274.2469 23.590626 276.40314 23.590626Q277.34064 23.590626 278.1219 23.934376Q278.91876 24.2625 279.3094 24.809376Q279.7 25.35625 279.85626 26.10625Q279.95 26.60625 279.95 27.825L279.95 34.2L278.1844 34.2L278.1844 27.8875Q278.1844 26.809376 277.98126 26.278126Q277.77814 25.746876 277.2469 25.434376Q276.73126 25.121876 276.02814 25.121876Q274.90314 25.121876 274.09064 25.840626Q273.27814 26.54375 273.27814 28.528126L273.27814 34.2L271.5125 34.2ZM285.35626 32.621876L285.60626 34.184376Q284.8719 34.340626 284.27814 34.340626Q283.325 34.340626 282.79376 34.04375Q282.27814 33.73125 282.0594 33.246876Q281.84064 32.746876 281.84064 31.16875L281.84064 25.2L280.5594 25.2L280.5594 23.825L281.84064 23.825L281.84064 21.2625L283.59064 20.2L283.59064 23.825L285.35626 23.825L285.35626 25.2L283.59064 25.2L283.59064 31.2625Q283.59064 32.0125 283.6844 32.23125Q283.77814 32.434376 283.98126 32.575Q284.2 32.7 284.59064 32.7Q284.8719 32.7 285.35626 32.621876ZM287.52814 21.903126L287.52814 19.8875L289.29376 19.8875L289.29376 21.903126L287.52814 21.903126ZM287.52814 34.2L287.52814 23.825L289.29376 23.825L289.29376 34.2L287.52814 34.2ZM298.29376 32.91875Q297.3094 33.746876 296.40314 34.090626Q295.4969 34.434376 294.46564 34.434376Q292.7625 34.434376 291.84064 33.60625Q290.91876 32.7625 290.91876 31.465626Q290.91876 30.7 291.2625 30.075Q291.6219 29.45 292.1844 29.075Q292.7469 28.684376 293.45 28.48125Q293.96564 28.35625 295.0125 28.215626Q297.1375 27.965626 298.1375 27.621876Q298.15314 27.2625 298.15314 27.153126Q298.15314 26.090626 297.65314 25.6375Q296.98126 25.04375 295.65314 25.04375Q294.40314 25.04375 293.8094 25.48125Q293.23126 25.91875 292.95 27.028126L291.23126 26.79375Q291.46564 25.684376 291.9969 25.0125Q292.52814 24.325 293.54376 23.965626Q294.5594 23.590626 295.90314 23.590626Q297.23126 23.590626 298.0594 23.903126Q298.8875 24.215626 299.27814 24.7Q299.66876 25.16875 299.825 25.8875Q299.91876 26.340626 299.91876 27.5125L299.91876 29.85625Q299.91876 32.309376 300.02814 32.965626Q300.1375 33.60625 300.48126 34.2L298.6375 34.2Q298.3719 33.653126 298.29376 32.91875ZM298.1375 28.996876Q297.1844 29.3875 295.2625 29.653126Q294.1844 29.809376 293.73126 30.0125Q293.29376 30.2 293.04376 30.575Q292.79376 30.95 292.79376 31.41875Q292.79376 32.121876 293.325 32.590626Q293.85626 33.059376 294.8875 33.059376Q295.90314 33.059376 296.6844 32.621876Q297.48126 32.16875 297.85626 31.403126Q298.1375 30.79375 298.1375 29.6375L298.1375 28.996876ZM302.48126 34.2L302.48126 19.8875L304.23126 19.8875L304.23126 34.2L302.48126 34.2ZM313.0594 34.2L313.0594 19.8875L314.96564 19.8875L314.96564 34.2L313.0594 34.2ZM318.16876 27.23125Q318.16876 23.66875 320.075 21.653126Q321.9969 19.621876 325.02814 19.621876Q327.0125 19.621876 328.59064 20.575Q330.1844 21.528126 331.0125 23.23125Q331.85626 24.91875 331.85626 27.059376Q331.85626 29.23125 330.98126 30.95Q330.10626 32.66875 328.48126 33.559376Q326.8719 34.45 325.0125 34.45Q322.9969 34.45 321.40314 33.48125Q319.8094 32.496876 318.98126 30.809376Q318.16876 29.10625 318.16876 27.23125ZM320.1219 27.2625Q320.1219 29.840626 321.5125 31.340626Q322.90314 32.825 324.9969 32.825Q327.1375 32.825 328.5125 31.325Q329.90314 29.809376 329.90314 27.04375Q329.90314 25.309376 329.3094 24.0125Q328.73126 22.7 327.59064 21.98125Q326.45 21.2625 325.02814 21.2625Q323.02814 21.2625 321.575 22.653126Q320.1219 24.028126 320.1219 27.2625ZM344.3875 34.2L344.3875 21.575L339.66876 21.575L339.66876 19.8875L351.0125 19.8875L351.0125 21.575L346.27814 21.575L346.27814 34.2L344.3875 34.2ZM352.77814 34.2L352.77814 19.8875L363.1375 19.8875L363.1375 21.575L354.6844 21.575L354.6844 25.95L362.59064 25.95L362.59064 27.6375L354.6844 27.6375L354.6844 32.5125L363.46564 32.5125L363.46564 34.2L352.77814 34.2ZM365.10626 29.60625L366.8875 29.45Q367.0125 30.5125 367.46564 31.2Q367.9344 31.8875 368.90314 32.325Q369.8875 32.746876 371.1219 32.746876Q372.2 32.746876 373.02814 32.434376Q373.85626 32.10625 374.2625 31.54375Q374.66876 30.98125 374.66876 30.309376Q374.66876 29.6375 374.27814 29.1375Q373.8875 28.6375 372.9969 28.29375Q372.41876 28.059376 370.4344 27.590626Q368.46564 27.121876 367.6844 26.7Q366.65314 26.16875 366.15314 25.371876Q365.65314 24.575 365.65314 23.590626Q365.65314 22.496876 366.2625 21.559376Q366.8719 20.621876 368.0594 20.1375Q369.2469 19.6375 370.6844 19.6375Q372.27814 19.6375 373.4969 20.153126Q374.71564 20.66875 375.35626 21.66875Q376.0125 22.653126 376.0594 23.91875L374.2469 24.059376Q374.10626 22.7 373.2625 22.0125Q372.41876 21.309376 370.7625 21.309376Q369.04376 21.309376 368.2469 21.95Q367.46564 22.575 367.46564 23.45Q367.46564 24.23125 368.02814 24.73125Q368.575 25.23125 370.8875 25.746876Q373.2 26.2625 374.0594 26.653126Q375.3094 27.23125 375.90314 28.121876Q376.4969 28.996876 376.4969 30.153126Q376.4969 31.29375 375.84064 32.309376Q375.1844 33.325 373.95 33.8875Q372.73126 34.45 371.2 34.45Q369.2625 34.45 367.95 33.8875Q366.6375 33.309376 365.8875 32.16875Q365.1375 31.028126 365.10626 29.60625ZM382.3875 34.2L382.3875 21.575L377.66876 21.575L377.66876 19.8875L389.0125 19.8875L389.0125 21.575L384.27814 21.575L384.27814 34.2L382.3875 34.2Z" fill-rule="nonzero"/></svg>